<svg xmlns="http://www.w3.org/2000/svg" xmlns:xlink="http://www.w3.org/1999/xlink" viewBox="0 0 206.84 551.86"><defs><radialGradient id="radial-gradient" cx="130.81" cy="268.33" r="4.36" gradientTransform="translate(-84.81 137.52) rotate(-11)" gradientUnits="userSpaceOnUse"><stop offset="0.13" stop-color="#ffebff"/><stop offset="0.16" stop-color="#f6e7ff"/><stop offset="0.2" stop-color="#ddf"/><stop offset="0.25" stop-color="#b5cdff"/><stop offset="0.28" stop-color="#98c1ff"/><stop offset="0.39" stop-color="#87aeed"/><stop offset="0.53" stop-color="#6a8fd0"/><stop offset="0.56" stop-color="#5877ad"/><stop offset="0.62" stop-color="#415880"/><stop offset="0.67" stop-color="#2d3d58"/><stop offset="0.73" stop-color="#1d2738"/><stop offset="0.79" stop-color="#101620"/><stop offset="0.86" stop-color="#070a0e"/><stop offset="0.92" stop-color="#020203"/><stop offset="1"/></radialGradient><radialGradient id="radial-gradient-2" cx="91.47" cy="158.52" r="4.36" xlink:href="#radial-gradient"/><radialGradient id="radial-gradient-3" cx="180.56" cy="138.73" r="4.36" xlink:href="#radial-gradient"/><radialGradient id="radial-gradient-4" cx="208.72" cy="29.85" r="4.36" xlink:href="#radial-gradient"/><radialGradient id="radial-gradient-5" cx="209.87" cy="-34.83" r="4.36" xlink:href="#radial-gradient"/><radialGradient id="radial-gradient-6" cx="146.68" cy="96.89" r="4.36" xlink:href="#radial-gradient"/><radialGradient id="radial-gradient-7" cx="210.71" cy="74.76" r="4.36" xlink:href="#radial-gradient"/><radialGradient id="radial-gradient-8" cx="182.7" cy="10.51" r="4.36" xlink:href="#radial-gradient"/><radialGradient id="radial-gradient-9" cx="239.88" cy="-1" r="4.36" xlink:href="#radial-gradient"/><radialGradient id="radial-gradient-10" cx="292.12" cy="-59.48" r="4.36" xlink:href="#radial-gradient"/><radialGradient id="radial-gradient-11" cx="278.36" cy="-11.51" r="4.36" xlink:href="#radial-gradient"/><radialGradient id="radial-gradient-12" cx="170.63" cy="49.78" r="4.36" xlink:href="#radial-gradient"/><radialGradient id="radial-gradient-13" cx="137.23" cy="124.87" r="4.36" xlink:href="#radial-gradient"/><radialGradient id="radial-gradient-14" cx="132.09" cy="110.88" r="4.36" xlink:href="#radial-gradient"/><radialGradient id="radial-gradient-15" cx="173.18" cy="190.01" r="4.36" xlink:href="#radial-gradient"/><radialGradient id="radial-gradient-16" cx="137.63" cy="196.74" r="4.36" xlink:href="#radial-gradient"/><radialGradient id="radial-gradient-17" cx="64.83" cy="178.2" r="4.36" xlink:href="#radial-gradient"/><radialGradient id="radial-gradient-18" cx="91.82" cy="234.53" r="4.36" xlink:href="#radial-gradient"/><radialGradient id="radial-gradient-19" cx="101.3" cy="309.72" r="4.36" xlink:href="#radial-gradient"/><radialGradient id="radial-gradient-20" cx="92.98" cy="426.42" r="4.36" xlink:href="#radial-gradient"/></defs><g style="isolation:isolate"><g id="Layer_2" data-name="Layer 2"><g id="Layer_1-2" data-name="Layer 1"><path id="IL-GH" d="M202.71,79l-2.15,3.77-1.76,3.85-1.93,2.08L193.94,94l-3.73,4.33-.11-.47-.75-.43-2.6,1.07-1.24.15-.6.51-.46,1-.49,1.92-2.72.37-1.71,1.74-1.9,1.34-1.18.36-.86.56-3,.2-1.43.92h0l-.06-.88-.34-.38-2.28-1-.87-.61,0-.28,2.26-2.3,1.33-2.79.37-2.48.22-5.14.83-3.19.23-2.13-.32-2.25-.52-1.35-1.55-3-1.05-1.13-.5-.86-.9.39-.54-.31-.25-.6,0-.73L168,75l.25-1.21.52-7.26-.2-3.27-1.38-2.59,0-.67,2-2,1.23-2.35.56-.65,1.29-.39.34.4,0-3.68.33-3.1,1.78-4.75.44-1.72v-1l-.58-2.47-.21-1.89.08-3.09.58-2.22,1-2.37-.11-.37-.69-.4-1.5-.2-.71.09-1.57.84-.89.22-.89-.21-1-.93h0l.45-1.13.56-.74,3.46-1.62,3.65-2.19L178.06,21l1.77-2.84,1-.9.74-.29,3,.26,1.81-.31,2.4-1,2.21-1.8.7-1,.37-1.12.56-3.62,1-1.64,1.82-1.32L202,1.79l.61.48.17,1-.43,1.81-1.25,2.06-2.37,2.71-1,2.64-.37,2.57.58,5.77-.18,1-1.37,2.34.88,1.06L199,26.73l.78,1.07.39.69.8,2.89.16,1.66-.24,1.13-.45,1.16-1.06,1.16-.38.76.22,1.54,1,.35,1.64.18.9.42,2.52,3.64L205,47.1l-1.91,1.69-.22.58.27.78,1.35,1.53.14.61-.18.34-.63.39-1.35.15-2.37-.63-.51.41-.28.74.6,2.48-.35,4.46.62,2,1,9.42L203.3,75l.41,1v.78l-.55,1.51Z" style="fill:none;stroke:#674eea;stroke-miterlimit:10;stroke-width:3px"/><path id="IL-Z" d="M146.72,146.69l-.79-.7,0-.72-.85-1.09-.69-2,.15-2.81-.38-3L142.26,133l-1.93-1.44-1-.25-2.29,0-5.84,1.07H129.8l-.94-.25-1.88-.93-1.83-1.34L123,127.64l-1.65-.9-1.15.18-.64.32-.67.75h0l-.63-1.07-.29-.31-1.39-.54-.4-.28-.9-1.68-.33-.32-.43-.19-.69.27-.87,1.41-1.29.63-.36.31-.2,1.06-.27.39-.76.24-.79,1.44-.5.43-.73.27h-.33l-2-.62h-1.85l-.5-.16-.43-.5-.3-.71-.46-.19-.2.15-.54,0-.36-.94-.36-.27-.73-.24-.24-.75.37-1.21.06-.93-.3-.35-.65-.28-.3-.67-.24-.11-.56,0-.33-.32-.2-.74v-1.18l-.46-.5-.23-.09-.34-.31-.1-.54.27-.4.47-.15h.89l.93.39.56.08.73-.16.1-.51-.27-.39-1.79-.47-.39-.55-.07-.59.13-.82.46-.82.34-.36.66-.27h.6l.72.2,1.33.66h.53l.36-.31.37-.59.86-2,.4-.56,2.09-1.17.33-.31.2-.43,0-.86-.39-.56-.57-.43-.19-.47.06-1.41.17-.47.29-.31.3,0,.33.32.61,1,.22.12.43-.16.76-.86.21-.43.1-.55v-.31l-.27-.71,1.13-.82.26-.35.07-.28-.53-1.41-.07-.59.07-.27,1.75-2.79.07-.82.23-.75,0-.62-.23-.67-.63-1-.87-2.12,0-.87.46-1.8-.1-.55-.76-.55-2.23-.67L106.72,85l-1.06-.55V84l.39-1.53,0-.63-.27-.36-.63-.35-.46-.5-.26-.71-.11-.86-.22-.06.36-2.58L104,75l-.83.12h0l-.23-.34-.27-.2-.4,0-.13.11V75l-.23-.08-.3,0v-.31l.53-1.41.07-1,.46-1.93,0-1.14.11-.24,0-.47.07,0V68l.13-.47,0-.2.3-.75v-.35l.2-.08V65l.13-.12.1-.59.46-.86,0-.56-.1-.19.1-.08v-.51l.16-.32,0-.39.2-.43,0-.12.17-.08-.06-.4.22-.47.11-.58L105,59l.07-.59.33-.59-.13-.08v-.31l.33-.28-.07-.08.1-.32-.06-.19.23-.35-.07-.4h.1l0-.43.16-.12,0-.9.14-.28.07-1.3.13-.23v-.43l-.1-.13V50.67l5.32-.08,3.76-.32,4.23.74.42-.18.68-.74,1.38-.45,4.42-.15,4.59-.64,2.36.56,2,3.81,1.12,1.29,1.8,1.07.69.2,3-1.35,3.27-.27.87-.45,2-2,.59-.8,1-.72.52-.06,2.11.51,2-.77.29-.33.16-1.8.27-.59,2.27-1,.59-1.41.24-3.11.75-3.44.77-1.33.59-1.58-.1-1.72-.43-1.94.06-1.11,1-2.32.7-.58,1.12-1.47,1.14-2.52.28-.3.84.68,2.83,4,.46.15.44-.42h0l1,.93.89.21.89-.22,1.57-.84.71-.09,1.5.2.69.4.11.37-1,2.37-.58,2.22-.08,3.09.21,1.89.58,2.47v1l-.44,1.72-1.78,4.75-.33,3.1,0,3.68-.34-.4-1.28.39-.57.65L169.14,58l-2,2,0,.67,1.38,2.59.2,3.27-.52,7.26L168,75l-.69,1.53,0,.73.25.6.54.31.9-.39.5.86,1.05,1.13,1.55,3,.52,1.35.32,2.25-.23,2.13-.83,3.19-.22,5.14-.37,2.48L170,102.12l-2.26,2.3,0,.28.87.61,2.28,1,.34.38.06.88h0l-3.36,1.47-.78.89.22,2-1.35.54.06.86-.29.33-1.05.3-1.73,1.31-.16,1.45.38.43-.18,2.1.27.65.89.49.24.88-.57,1.31-.08,1.32,1.22,2.54-.12.29h-1.19l-.21,1.33h-.55l-.69-.46-.26.14.08.83.8,1.31-.26.44-1.21.25-.63.9.56.43.77,0,.76,1.73.9.36.23.38-.15.72-1.47,2.66-.11.71.19.64,1,.48.24.47-.3.69-.58,0-.4.37.29,1.86-1.4.44.35,3.18-.21.52-.89.27-.13.22,1.15,1.93-1-.1-2.77-.8L154.22,147l-1.49-.45-2.71-.12-1.79.52Z" style="fill:none;stroke:#674eea;stroke-miterlimit:10;stroke-width:3px"/><path id="IL-HA" d="M77.73,146.69l-.06-.11.13-.32.23-.11.1-.32v-.08H77.8l.2-.27v-.2l.16-.31.27-.12,0-.12.06,0,.5-2.42.07-1.14.36-1.09.2-1.06-.26-.7H77.87v-.2l1.29,0,.1-.08.07-.31.13.12,0,.27h.4l0-.08h-.23l-.1-.11v-.16l.13,0,.07-.27v-.16l-.13,0v-.11l.13,0,0,.11h.09l.17-.11-.07-.12,0-.43.37-.63-.07-.19-.19.07,0-.54.13-.08v-.31l.14-.24-.07-.16.23-.27v-.27l-.13-.12.06-.46.27-.21,0-.54.32-.43-.32,0,0-.2h.17l.19-.43.27-1.17.13-.2,0-.5.16-.32,0-.51-.2,0-.1-.11v-.39l.17-.51.26-.27.24,0,.19-.39,0-.16-.23,0v-.24l-.17-.11.4-.75-.1-.2,0-.31.2-.23.27-1,.13.08.07-.16-.07-.27.26-.51-.06-.32-.24-.23v-.24l.24-.23.1-.55-.13-.07v-.21l.2-.58.19-.27-.1-.16.1-.27,0-.67.13-.27v-.36l-.1-.07.14-.4.13-1.25.17,0,.16-.39.06-1.14.21-.86.22-.39-.19-.12.17-.86,0-.62.3-.28,0-.16,0-1.25.19-1.3,0-1.17.14-.27v-.12l-.14-.12v-.19l.07-.09,0-.27.2-.16,0-.23-.17-.12v-.31l.2-.59v-.31l.37-.44v-.19l.26-.28.47,0,.33-.42.23-.52.14-.59-.11-.35.24-.28.13-1.44.26-.63.24-2.74.13-.52V96.11l.06-.55.14-.31.16-2L88,92.62h.16l0-.08.09-.94,0-.48-.17-.31h.1l.07-.12.09.12.1,0v-.12l-.1,0,.1-.32-.13-.12-.1-.35V88.57l.17-.19-.13-.23.19-.24.3.08.73-.71.36-.08.44,0,.59-.31.14-.24.09-.08.11,0,.09-.16h.3l.44.2.29.55h.3l.17.16.59.23.36,0v.12l.17.2.9,0,.86-.24v.12l-.4.15L95.23,88l-.26.19h-.13L94,88.1l-.5-.15-.6-.43-.26.07.17,0,.06.16.13,0L93,88l.7.35.09.19.14,0,.2.24.06.28.14-.09v-.38h.13l.07.35h.16l.07-.24-.17-.16v-.15l0-.08.2,0,.27.39.1.75.23.07.13.32H96l.17-.12.36,0-.09-.28.13,0,.52.35.11.63.66-.2,0-.12-.1-.15-.33,0-.06-.39-.27,0-.19-.12.52-.16,1.06-.71.24,0,.13-.27.2,0v-.16l.23-.11v-.2l.16-.16.2-.43.47-.43.7-1L102,82.92l.2-.08-.07-.27.3-1,.13-.07,0-.16.27-.75.17-.12-.07-.15.33-1.14,0-.16.3-1.53,0-1.73-.33-.68h0L104,75l.48,1.41L104.14,79l.22.06.11.86.26.71.46.5.63.36.27.36,0,.62L105.66,84v.51l1.06.55,1.22,1.06,2.22.67.77.55.1.55-.46,1.8,0,.87.87,2.12.63,1,.23.67,0,.62-.23.75-.07.82-1.75,2.79-.07.27.07.59.53,1.41-.07.28-.26.35-1.13.82.27.71V104l-.1.55-.21.43-.76.86-.43.16-.22-.12-.61-1-.33-.32-.3,0-.29.31-.17.47-.06,1.41.19.47.57.43.39.56,0,.86-.2.43-.33.31L104.73,111l-.4.56-.86,2-.37.59-.36.31h-.53l-1.33-.66-.72-.2h-.6l-.66.27-.34.36-.46.82-.13.82.07.59.39.55,1.79.47.27.39-.1.51-.73.16-.56-.08-.93-.39h-.89l-.47.15-.27.4.1.54.34.31.23.09.46.5v1.18l.2.74.33.32.56,0,.24.11.3.67.65.28.3.35-.06.93-.37,1.21.24.75.73.24.36.27.36.94.54,0,.2-.15.46.19.3.71.43.5.5.16h1.85l2,.62h.33l.73-.27.5-.43.79-1.44.76-.24.27-.39.2-1.06.36-.31,1.29-.63.87-1.41.69-.27.43.2.33.31.9,1.68.4.28,1.39.54.29.31.63,1.07h0l-1.52,1.72-.41.86L115.54,132l-2.34,1.71-3,1.51-4.8,1.82-.9.68-1.11,2.08-.53,2-.56,3.6-1,2.88L101,150h0l-.55,0L97.17,151h-.86l-.53-.12L95,149.76l-.82-.47-.44-.86-.6-.66-.39-.28-.5-.15H89.35l-1.82-.43-1.82-.12-1.16.15-1.43.55-.86,0-.53-.12-1.36-.58-1.09-.2Z" style="fill:none;stroke:#674eea;stroke-miterlimit:10;stroke-width:3px"/><path id="IL-M" d="M54.43,221.74l1.1-2.74.13-.59.37-.77v-.15l.13-.16.16-.85.2-.39,0-.47.14,0,0-.16.1,0v-.28l.06-.12H57v-.19h.06l.27-.46.17-.08,0-.23,1-1.48.86-2.1.83-2.18,1.46-5h0l1,.16.56.43L64,204l2.13,0,1,.58.83.12,1.86-.12,1-.28.82-.77,1.59-1.95.8-.46h.59l.67.27.59,1,.47.19.66-.27.13-.23.37-.23.8-.2,1.15.12.47-.47,0-.62-.17-.46-.49-.51L78,199.07l-.63-3.81-.16-.46-.47-.51-1.16-.78-.39-.55-.1-.54.1-.78.16-.46,0-1.22.16-1.08,1-1.25.79-1.44.37-.9,0-1.2-.33-.94.23-.74.07-1.83-.2-.47-1-.54-.36-.63-.63-.31-.89-.78-.94-.35-2.55-.31-.88,0h0l.21-.53v-.2l-.11-.12,0-.2.36-.85.17-.16,0-.31.3-.55,0-.46.36-.55.07-.54.16-.39-.07-.4.27-.27V171l.23-1,.2-.31.33-.9,0-.46.13-.2.17-.54,0-.12.38-1,0-.58h-.1v-.12l.24-.39.07-.89.36-.71.06-.39.3-.66,0-.47.13.08.1,0-.07-.66.13-.7.14-.12,0-.28.49-2.22v-.16l-.17-.12,0-.19.43-.24,0-.11.23-1.33.13-.35v-.47L76,155l.56-2.58v-.46l.17-.86h-.2V151l.36-.35.11-.24.06-.54-.06-.47.19-.79-.23-.15.17-.35.13-.08.26-.7.11,0,.09-.59h0l1.55-.06,1.09.2,1.36.58.53.12.86,0,1.43-.55,1.16-.15,1.82.12,1.82.43H92.2l.5.15.39.28.6.66.44.86.82.47.83,1.09.53.12h.86l3.32-1.05.55,0h0l-.25,1.82-.83.81L96.86,154l-.8,1-1.26,2.38-.13,3.79.56,4-.4,1-1,.72-1.64,2.37L90,174.17l-.21,1.65.06,1.62,1.62,2.44.65,1.35.9,4,.15,1.8-.38,1.47-1,1.83-.14,1.12.37.93,1.25,1.33,1.37,2.61.4,1.61L94.82,200l-1,2.08,0,.95.23.75-.53.43.52,1.38-1.63,3.49.29,3.17,1.83,2.47,2.72,2.17.58,2.24-1.05,3.27-6,1.07-.11.16h0l-3.06-.13-1.85-.23-1.07.11-.88.69-1.08,3.09-1.26.79-3.81.81-2,.68-2.44,2.4-.53,1.35h-.27l-.36.27-.76.85L70.26,236l-.63.67-.36.27-.77.19-.39-.27-.67-.93-.86-2.68-.29-.66-.54-.78-.66-.58L63,230.05l-.27,0-.76.85-.37.28-.49.07L60,231.05l-.57.12.11.39.92.39.23.74.67.62,0,.31-.3.35-.29,0-.76-.19-.24.08,0,.9-.34.34-1.09.2-.3-.05-.73-.58-.72-.19-1.33-.08-.56-.43-.17-.46v-.35l.27-.38.56-.39.9-.39.33-.31.23-.43-.1-.55-.43-.54-1.23-.65-.3-.7v-.55l.33-.62.43-.23.3,0,1.2.43.52.07.63,0,.34-.28,0-1.51.3-1-.24-1.05.07-.27.93-1,.09-.5-.22-.39L59,221.7l-1.16.42-.83-.07-.72-.89-.6.07-.33.31-.47.2Z" style="fill:none;stroke:#674eea;stroke-miterlimit:10;stroke-width:3px"/><path id="IL-TA" d="M61.66,203.23l.26-1,.27-.61.1-.9.26-.35-.16-.12.23-.78.2-.31v-.23l.14-.31.16-.19.1-.86.39-.31v-.36l-.13-.11.37-.35h.23l.29-.24.37-.58.24-.74.16-.23,0-.35-.06-.08.2-.08-.14-.19.1-.12-.06,0,.06-.27.5-1.17,0-.35.15-.07.09-.24-.17-.47v-.39l.26-.19.13,0,.21-.62.29-.59-.16-.31,0-.23h.1l.07.19h.13L67.3,188l.22-1.17.3-.39.11-.27,0-.15.1-.09.33-1.28V184l.4-1-.07-.42.37-.2,0-.31-.23-.16.07-.89.13-.12.2.08.06-.12.47-1.56.33-1.75.23-.4h0l.88,0,2.55.31.94.35.89.78.63.31.36.63,1,.54.2.47-.07,1.83-.23.74.33.94,0,1.2-.37.9-.79,1.44-1,1.25L75.37,190l0,1.22-.16.46-.1.78.1.54.39.55,1.16.78.47.51.16.46.63,3.81,1.33.59.49.51.17.46,0,.62-.47.47-1.15-.12-.8.2-.37.23-.13.23-.66.27-.47-.19-.59-1-.67-.27H74l-.8.46-1.59,1.95-.82.77-1,.28-1.86.12-.83-.12-1-.58L64,204l-.79-.15-.56-.43Z" style="fill:none;stroke:#674eea;stroke-miterlimit:10;stroke-width:3px"/><path id="IL-D" d="M150.46,278.08l-.05,7.12L150,288l-2,5.6-4.51,8.11-1.38,2.8-1.28,2.26-.61,2.8,1.36,3,5.32,7.16,1,2,.6,2.89.12,2.17-.81,3.55-.73,2.54-4.57,7-.49,2.82.29,2.26,1,2.7v2.85l-2.07,1.91-4.49,2.94-3.18,7,0,2.51.6,2.27-.61,2.79-2.29.83L129.39,373l-1,2.88v5.63l-1.68,3.93-2.93,5.34-.63,3.07-1.77,1.65-3.53,6.79-.28,2.28-2.7,12.51-.82,2.46-1.65,2.37-.47,1.86,4.12,7.76.63,2.15-.38,1.64-2.65,2.94-.76,2.36.41,2.74-2.27,5,3.74,16.54-9.24,13.25L103,488l.37,10.72-3.52,7-.53,2.57.35,2.05-.35,2.76-2,8.46v4.61l.31,2.88,0,2.67-1.56,1.92-2.13,1.56-1.82,2.11-1.28,2.56-1.16,3.27-.24-.08-.5,0-.29-.31h-.27l-.09.39-.14,0-.06.37-.17.19,0,.19h-.3l-.06.19-.31.12-.13.26-.1.57-.3.49h-.26v.12l-.36.41-.43.26-.11.38-.46.46v.57l-.3.19-.43.61-.23.18v.35l-.53.6-.5.23-3-3.49-1.57-3-.57-2.28-.48-4,1.13-3.73.56-3.73-.54-2.57-2.14-3.73.08-6.58-12.2-34.26.24-2.07L60.71,470,50.43,440.89,48,431.76l-8.33-5.45-.31-4.23,2.48-7L36.66,409l.34-7.52-3.45-14.37L23,365.07l-6.81-19.94L6.39,312.46l5.37-4,5.31-4.58,1.31-2.42,0-3.74-.3-4,1-3.49,4-5.11,12-11.6,3.48-.83,1.06-1.88,0-2.68L38,265.69l-5.19-4.84,2.88-4.69.5-.31.23-.35,0-.07-.2,0,0-.35-.1,0v-.11l.4-.47v.16l-.3.34.34.08.06.12.1,0,1.82-3,.24-.82.43-.31.66-.85.26-.54,0-.2.37-.46.19-.51.17-.11.07.16H41l2-3.61.37-.51.92-1.86.53-.66.27-.77,1.32-2.29,1.2-2.56.59-1,.6-1.44.2-.34.1-.05,0-.11.34-.62.33-.93.43-.78.49-1.16-.36-.39-.2-.66,0-.54.32-.82h.11v.27l-.13.08-.2.47v.65l.42.74h.27l.07-.19-.34-.19V229l.14-.08,0-.38.1-.12,0-.31V228l-.13-.08v-.16h.3l.13.16H52l.07-.19.26-.27.06-.16-.16-.08,0-.19,0-1,.1-.08,0,.15h.09V226l.27-.15,1-2.5.76-1.64h.45l.47-.2.33-.31.6-.07.72.89.83.07L59,221.7l.44.23.22.39-.09.5-.93,1-.07.27.24,1.05-.3,1,0,1.51-.34.28-.63,0-.52-.07-1.2-.43-.3,0-.43.23-.33.62v.55l.3.7,1.23.65.43.54.1.55-.23.43-.33.31-.9.39-.56.39-.27.38v.35l.17.46.56.43,1.33.08.72.19.73.58.3.05,1.09-.2.34-.34,0-.9.24-.08.76.19.29,0,.3-.35,0-.31-.67-.62-.23-.74-.92-.39-.11-.39.57-.12,1.13.16.49-.07.37-.28.76-.85.27,0,2.05,1.16.66.58.54.78.29.66.86,2.68.67.93.39.27.77-.19.36-.27.63-.67,1.2-1.67.76-.85.36-.27H73l.67.66.76,1.13.5,1.12.53,1.74.26.36.4.23,1.06-.23.6.07.43.16.59.74v.5L78.21,241l.07.5.53,1.44.07.58-.07.89-.33.66-.1.54.16,2.1-.09,1.12.3,1v1l-.21,1.09.3.7,1.83,1.05,1.72,1.16,1.62.89.54.47.66.92,1.86.47.39.19,2.6,2h0l-1.85,2.75-1,5.24.51,5.68-.44,2.42-2.39,4.53-2.64,3.42-2.32,4.65.33,2.77,1.33,2.17,1.92,1.59,3,.79,5.42-.71,5-1.25,4.88.41,6.88.44,2.52-1.3,1.65.38,2.59-.45,2.23-.19,2.87-.54,1.75-1.05,3.48-3.57,3-3.34,3.86-1.72,4-2.89,4.22-3.73,1.88-.66,7.88.12Z" style="fill:none;stroke:#674eea;stroke-miterlimit:10;stroke-width:3px"/><path id="IL-JM" d="M119.86,240.88l-.17.26-6,.15-5.08,2.09-6.23,6.16-5.6,2.69-2,1.73-3.64,3.93-1.08,1.82h0l-2.6-2-.39-.19L85.21,257l-.66-.92-.54-.47-1.62-.89-1.72-1.16-1.83-1.05-.3-.7.21-1.09v-1l-.3-1,.09-1.12-.16-2.1.1-.54.33-.66.07-.89-.07-.58-.53-1.44-.07-.5.63-1.32v-.5l-.59-.74-.43-.16-.6-.07-1.06.23-.4-.23-.26-.36L75,236.1l-.5-1.12-.76-1.13-.67-.66h-.19l.53-1.35,2.44-2.4,2-.68,3.81-.81,1.26-.79,1.08-3.09.88-.69,1.07-.11,1.85.23,3.06.13h0l-1.36,2,1,3.75,2.3,1,3.3.47,3-1.09,2.25-2.44,2.27-1.34,2.63,2.43,2.39,1.15,5.16,2.08,5.53,0,2.18,2.27-.36,5.05Z" style="fill:none;stroke:#674eea;stroke-miterlimit:10;stroke-width:3px"/><path id="PS" d="M39.57,268.09l0,2.68-1.06,1.89-3.46.82L24,284.17l-1,.92-4,5.11-.47,1.57-.58,1.92.3,4,0,3.75-1.32,2.41-4.41,3.81-.9.78-5.38,4-4.63-15.4.26-.2,3.54-3.47L9.62,289l1.29-1.15,1.1-1,2.22-2.32L16,282.63l2.82-3.4.7-1,.92-1.08,2.62-2.9,5.43-7,3-4.32,1.29-2.07L38,265.69l1.62,2.4Zm122.69-94.37-.33-1.11-.12-2.25-.46-2,.43-3.1-.82-2,0-1,.58-1.63-.94-2.51.09-1.13.39-1,.33-2.11-.29-.82-.88-1.09.23-2.52-2.77-.8L154.22,147l-1.5-.46-2.72-.11-1.78.52-1.51-.25-.79-.7,0-.71-.85-1.09-.69-2,.14-2.81-.37-3L142.24,133l-1.93-1.44-1-.25-2.3,0-5.83,1.07h-1.39l-.95-.25-1.88-.93-1.83-1.34L123,127.66l-1.65-.9-1.16.18-.63.32-2.19,2.47-.42.86L115.52,132l-2.36,1.71-3,1.51L105.4,137l-.91.68-.71,1.34-.4.75-.52,2-.56,3.61-1,2.88-.49,3.57-.84.81L96.83,154,96,155l-1.27,2.38-.13,3.79.56,4-.4,1-.24.18-.76.54-1.64,2.38L90,174.21l-.2,1.64.06,1.63,1.62,2.43.65,1.35.9,4,.15,1.8-.38,1.47-1,1.84-.07.56-.07.55.37.93,1.25,1.33.17.31,1.2,2.3.39,1.61L94.8,200l-1,2.09,0,.94.23.75-.52.43.52,1.39-1.63,3.49.29,3.17,1.83,2.47,2.72,2.17.58,2.24-1.06,3.27-5.95,1.07-1.48,2.18,1,3.74,2.3,1,3.3.48,3-1.1,2.24-2.43,1.63-1,.65-.39,2.62,2.43,2.4,1.15,5.15,2.08,5.54,0,2.17,2.27-.36,5.06-1.24,1.94-.17.26-6,.16-5.09,2.07-5.16,5.11-1.08,1.06-5.59,2.69-2,1.73-3.64,3.93L90,259.73l-1.85,2.76-1,5.23.52,5.68-.44,2.42-2.39,4.53-2.65,3.42-2.31,4.66.32,2.76,1.34,2.17L83.42,295l3,.79L91.8,295l5-1.24,4.87.4,6.88.45,2.52-1.31,1.65.38,2.59-.44,2.22-.19,2.88-.54,1.75-1,3.48-3.57,3-3.34,3.86-1.72,4-2.89,1.16-1,3.06-2.7,1.89-.67,7.88.11.08-5.77.25-6.22,2.52-8.65,2.59-8.15,1.1-3.47.13-.24L160,238l-1.47-8.16.94-2.66-1.24-2,1.16-2.3-2.07-1.32-1.17-5.89,2.16-2.08.75-5-2-4.39,1.11-1.62-.19-.95-1.31-1.51-.26-6,.33-.67.65-1.29.39-2.49,1.68-2.27.45-1.56.34-3.74.77-3.5,1-2,.29-1.2-.08-1.62Z" style="fill:none;stroke:#674eea;stroke-miterlimit:10;stroke-width:3px"/><path d="M93.61,371.76c-2.32.45-3.61,3.27-3,5.4a4.47,4.47,0,0,0,5.41,3c2.32-.45,3.6-3.28,3-5.41A4.45,4.45,0,0,0,93.61,371.76Z" style="mix-blend-mode:screen;fill:url(#radial-gradient)"/><path d="M34,271.47c-2.32.45-3.61,3.28-3,5.4a4.47,4.47,0,0,0,5.41,3c2.32-.45,3.61-3.28,3-5.4A4.47,4.47,0,0,0,34,271.47Z" style="mix-blend-mode:screen;fill:url(#radial-gradient-2)"/><path d="M117.71,235c-2.32.45-3.61,3.28-3,5.41a4.47,4.47,0,0,0,5.41,3c2.32-.45,3.61-3.28,3-5.4A4.47,4.47,0,0,0,117.71,235Z" style="mix-blend-mode:screen;fill:url(#radial-gradient-3)"/><path d="M124.57,122.79c-2.32.45-3.61,3.28-3,5.41a4.45,4.45,0,0,0,5.41,3c2.32-.45,3.61-3.27,3-5.4A4.47,4.47,0,0,0,124.57,122.79Z" style="mix-blend-mode:screen;fill:url(#radial-gradient-4)"/><path d="M113.36,59.08c-2.32.45-3.61,3.28-3,5.41a4.47,4.47,0,0,0,5.41,3c2.32-.45,3.6-3.27,3-5.4A4.46,4.46,0,0,0,113.36,59.08Z" style="mix-blend-mode:screen;fill:url(#radial-gradient-5)"/><path d="M76.46,200.44c-2.32.45-3.61,3.28-3,5.4a4.47,4.47,0,0,0,5.41,3c2.32-.45,3.61-3.28,3-5.41A4.47,4.47,0,0,0,76.46,200.44Z" style="mix-blend-mode:screen;fill:url(#radial-gradient-6)"/><path d="M135.1,166.49c-2.32.46-3.61,3.28-3,5.41a4.46,4.46,0,0,0,5.4,3c2.32-.46,3.61-3.28,3-5.41A4.46,4.46,0,0,0,135.1,166.49Z" style="mix-blend-mode:screen;fill:url(#radial-gradient-7)"/><path d="M95.34,108.77c-2.32.45-3.61,3.28-3,5.41a4.47,4.47,0,0,0,5.41,3c2.32-.45,3.6-3.27,3-5.4A4.46,4.46,0,0,0,95.34,108.77Z" style="mix-blend-mode:screen;fill:url(#radial-gradient-8)"/><path d="M149.27,86.56c-2.32.45-3.61,3.27-3,5.4a4.47,4.47,0,0,0,5.41,3c2.32-.45,3.6-3.28,3-5.41A4.46,4.46,0,0,0,149.27,86.56Z" style="mix-blend-mode:screen;fill:url(#radial-gradient-9)"/><path d="M189.39,19.19c-2.32.45-3.61,3.27-3,5.4a4.47,4.47,0,0,0,5.41,3c2.32-.45,3.61-3.28,3-5.41A4.47,4.47,0,0,0,189.39,19.19Z" style="mix-blend-mode:screen;fill:url(#radial-gradient-10)"/><path d="M185,68.9c-2.32.45-3.61,3.28-3,5.41a4.46,4.46,0,0,0,5.41,3c2.32-.45,3.6-3.27,3-5.4A4.45,4.45,0,0,0,185,68.9Z" style="mix-blend-mode:screen;fill:url(#radial-gradient-11)"/><path d="M91,149.62c-2.32.45-3.61,3.28-3,5.41a4.46,4.46,0,0,0,5.41,3c2.31-.45,3.6-3.27,3-5.4A4.46,4.46,0,0,0,91,149.62Z" style="mix-blend-mode:screen;fill:url(#radial-gradient-12)"/><path d="M72.53,229.71c-2.32.45-3.61,3.27-3,5.4a4.45,4.45,0,0,0,5.4,3c2.32-.45,3.61-3.28,3-5.41A4.45,4.45,0,0,0,72.53,229.71Z" style="mix-blend-mode:screen;fill:url(#radial-gradient-13)"/><path d="M64.81,217c-2.32.45-3.61,3.27-3,5.4a4.47,4.47,0,0,0,5.41,3c2.32-.46,3.6-3.28,3-5.41A4.45,4.45,0,0,0,64.81,217Z" style="mix-blend-mode:screen;fill:url(#radial-gradient-14)"/><path d="M120.25,286.78c-2.32.45-3.61,3.28-3,5.41a4.46,4.46,0,0,0,5.41,3c2.32-.45,3.61-3.27,3-5.4A4.47,4.47,0,0,0,120.25,286.78Z" style="mix-blend-mode:screen;fill:url(#radial-gradient-15)"/><path d="M86.63,300.18c-2.32.45-3.6,3.28-3,5.41a4.46,4.46,0,0,0,5.4,3c2.32-.45,3.61-3.28,3-5.4A4.47,4.47,0,0,0,86.63,300.18Z" style="mix-blend-mode:screen;fill:url(#radial-gradient-16)"/><path d="M11.63,295.87c-2.32.46-3.6,3.28-3,5.41a4.46,4.46,0,0,0,5.4,3c2.32-.46,3.61-3.28,3-5.41A4.47,4.47,0,0,0,11.63,295.87Z" style="mix-blend-mode:screen;fill:url(#radial-gradient-17)"/><path d="M48.88,346c-2.32.45-3.61,3.27-3,5.4a4.47,4.47,0,0,0,5.41,3c2.32-.45,3.6-3.28,3-5.41A4.46,4.46,0,0,0,48.88,346Z" style="mix-blend-mode:screen;fill:url(#radial-gradient-18)"/><path d="M72.53,418c-2.32.45-3.61,3.27-3,5.4a4.45,4.45,0,0,0,5.4,3c2.32-.45,3.61-3.28,3-5.41A4.47,4.47,0,0,0,72.53,418Z" style="mix-blend-mode:screen;fill:url(#radial-gradient-19)"/><path d="M86.63,534.16c-2.32.45-3.6,3.28-3,5.41a4.46,4.46,0,0,0,5.4,3c2.32-.45,3.61-3.28,3-5.4A4.47,4.47,0,0,0,86.63,534.16Z" style="mix-blend-mode:screen;fill:url(#radial-gradient-20)"/></g></g></g></svg>