<svg xmlns="http://www.w3.org/2000/svg" viewBox="0 0 365.21 199.93"><g id="Layer_2" data-name="Layer 2"><g id="Layer_1-2" data-name="Layer 1"><g id="Layer_2-2" data-name="Layer 2" style="opacity:0.8"><g id="Layer_1-2-2" data-name="Layer 1-2"><path d="M33.13,43.48c.72,0,.81.27,1.44,0S37,42,37.64,41.85s1,0,.11.56a14.2,14.2,0,0,0-2.43,1.53,21.59,21.59,0,0,0,2.57-1.1c1.32-.62,1.2-.35,1.54-1l.52-1A20.68,20.68,0,0,0,42.22,43c.23,0,.27,0,.38-.27s.32-.64.62-.51,0,.63.22.7.47,0,1-.19.26-.58.26-.58a2.25,2.25,0,0,1,.58-.07A13.31,13.31,0,0,1,48.5,43c.6.23,2.39.43,2.89.59s.69-.29,1.39.08,1.21.87.69,1.13-1.82.46-1.15.62a9.69,9.69,0,0,0,2.63.35c1,0,2.69-.39,3.23-.39s.85.33,1.36,1.17a3,3,0,0,0,1.09,1.24c.19.07-.19-.4-.09-.81a3.35,3.35,0,0,0-.22-1.5c-.12-.28,0-.41-.24-.81s-.62-.33.09-.68,1.2-.85,2.06-.74,1.09,1.2,1.83,1.28a17.13,17.13,0,0,0,2.15.47c1.27.09.74,0,2.16.11s.9-.16,1.19-.88.62-.87,1-.84,1.54.19,1.54.34-.5.94-.25,1.32a5.61,5.61,0,0,0,1.27,1s-.22-.88-.22-1-.07-.78.08-.91,1,.07,1.52-1-.36-1-.36-1-.32,0-.16-.41S75.09,41,75.09,41s.06.19-.06-.15-.74-.28-1.41-.32-1.12-.13-1.24-.7a15.65,15.65,0,0,1-.16-2.56c0-.81.65-.52.77-1a12.11,12.11,0,0,0-.19-3.12c-.17-.46.23-1.44.32-2.08s.76-.36.76-.36c-.12-.22.19-.84,1.08-1.1a7.92,7.92,0,0,1,2.57,0s-.15,0-.56.55-.15,1.49-.77,2.16A3.63,3.63,0,0,1,74,33s.49,1.11.29,1.47a4.18,4.18,0,0,0-.34,1.09s1.39.38,1.46,1.27.77,1,.93,1.84-.68,1.49-.5,1.61a1.06,1.06,0,0,0,.74.21c.51,0,1.18.12,1.18.12a.83.83,0,0,0,0,.86c.25.44.06.71.09,1.18s.31.87.43.79A7.56,7.56,0,0,0,79,41.6c.12-.54.21-.83.44-.83a2.67,2.67,0,0,1,1.13,1c.09.27.15.62-.3,1.34s-.4,1,0,1.32a5,5,0,0,0,1.09.53c.7.33.57.3,1,.17s-.17-1.21-.13-1.24,1-.13.8-.68-.44-.83,0-1.11l.79-.49a5.61,5.61,0,0,1-.58-1.3c-.32-.92.28-.67,1.56-.58s1.32.54,2,.89.25.46.47,1-.56.63-.56.63-.52.1-.4.52a7.19,7.19,0,0,0,.72,1.6c.37.66-.1,1.12-.68,1.65a2.7,2.7,0,0,1-1.93.7c-.69,0-1,.29-1,.1a.63.63,0,0,0-.74-.29c-.38.08-1.22.42-.92.52s1.08.09.75.69-.6.61-1.25.54-1.26-.07-1.68-.1L77.11,48a14.78,14.78,0,0,0,2.47,1.19,5.34,5.34,0,0,0,2.25.13s-.45.83-1,1.71-1,.5-1.48.55-.71.42-1.54.53-2.55-.24-2.29-.11a2.09,2.09,0,0,0,.86.41,2,2,0,0,1,1.18.5c.42.34-.26.42-.81.52a1.16,1.16,0,0,0-1,.53l-1.48,2.1A4.6,4.6,0,0,0,73.66,58c-.12.82-.81,1.79-.5,2s1.48.23,2,.54,1,1.79,1.4,2.35.67,1,1.08.55,1.23-.33,2,0a11.61,11.61,0,0,1,2.82,1.84c.49.48,1.35.4,2.31.54s1.07.5,1.07.5,1,0,.59.48-.54,0-.12.73a3.23,3.23,0,0,1,.28,2.16c-.12.48,1.32.24,1.93.6s.64,1.81,1,1.63.83-.5.89-.88a7.42,7.42,0,0,0-.07-1.56,6.78,6.78,0,0,0-.55-2.35c-.33-.48.58-.68.44-.88s-.12-.62.5-.79.67,0,1-.27.4-1.49.46-1.93a5.19,5.19,0,0,0-.25-1.75,11.64,11.64,0,0,0-1-1.75c-.22-.25-.5-.32.11-1.09s.25-.6.16-.84S91,57,90.82,56.46s.25-1.11,0-1.85-.46-.58-.42-.74a6.52,6.52,0,0,1,2.49,0,6,6,0,0,0,1.74-.11,3.75,3.75,0,0,1,1.41.67c.57.37.8.27,1.09.72s.46.71,1.06.68a3.23,3.23,0,0,1,1.26.26s-.43.25-.35,1.06A12.67,12.67,0,0,1,99,58.89c0,.33.18.34.46.38s1,.72,1.82,1,1,.2,1.24-.44.31-.58.63-.62.41.07.54-.07-.24-.41-.15-.85a3.06,3.06,0,0,1,.88-1.35c.35-.33.6.33.91.94s1.39,2.57,1.7,3.22.71.69.34,1.3-.54.86,0,1.14,1.1.75,1.06,1.21-.17.47,0,.59.89-.25,1.39,0a4.86,4.86,0,0,1,1.47.79c.35.36.32.48-.18.66a9.22,9.22,0,0,0-1.26.51c-.25.15-.65.44-.63.67s-.11.62.29.32a5,5,0,0,1,1.53-.74c.47-.14.11,0,.54-.07a4,4,0,0,1,1.44.37c.59.17.43.54.28.88a1.06,1.06,0,0,0,0,1.06c.24.39-.1.73-.62,1.2a2.64,2.64,0,0,1-1.74.65,3.27,3.27,0,0,0-1.84,1.17c-.59.55-.88.41-1.74.45s-.52-.43-.78-.33a3.48,3.48,0,0,1-1.16.44,24.64,24.64,0,0,0-3.1.29c-.71.21-.49.69-.67,1.09s-.46.23-1,.41a4.62,4.62,0,0,0-1.79,2,6.8,6.8,0,0,1-1.46,1.74A4.88,4.88,0,0,0,99,77.77a22.11,22.11,0,0,1,2.76-2.14,4.85,4.85,0,0,1,2-.87c.28.08,1,.62,1,.89s-.21.5-.71,1-1.17,0-1.13.19a1.33,1.33,0,0,0,.79.73c.38.1.37.56.37.8s-.22.54.66,1.28a2.7,2.7,0,0,0,2.16.76c.65,0,.31.22.58.19s.32-.54.41-1a1.66,1.66,0,0,1,.48-1c.23-.18.41-.51.49.13a2.08,2.08,0,0,1-.61,1.69c-.34.19-.27.44-.27.63s-.38.21-1.3.72-1.21.63-1.37.56-.51.09-1,.49-.92.93-1.24.92-.61-.15-.17-.61.6-1.09,1-1.31a1.82,1.82,0,0,1,1-.19c.37,0,.19-.22.49-.44s-.22-.15-.73-.23-.11-.53-.11-.53l-.52.28a7.4,7.4,0,0,1-1,.44c-.21,0-.17.16-.23.25a3,3,0,0,1-.79.13s-.39.79-1,.9-.17.07-.59.25-.34-.21-.43-.1a2.69,2.69,0,0,1-.62.55c-.45.35-.72.46-1,1.71a2.94,2.94,0,0,0,0,1.9c0,.19-.58-.12-.74,0a2.54,2.54,0,0,1-1,.75,5.79,5.79,0,0,0-1.67.62c-.23.24-.24.57-.34,1A11.89,11.89,0,0,1,94,90.84a.78.78,0,0,0-.27-.78c-.4-.33-.34-.64-.34-.64a2.09,2.09,0,0,0,.06.93,2.58,2.58,0,0,1,.31,1.44,2.49,2.49,0,0,1-.69,1.32c-.32.18.07-.34.07-.75s-.21-.44-.34-.65a2,2,0,0,1,.1-1.43c.24-.71-.22-.28-.49.19a1.9,1.9,0,0,0,0,1.9c.41.57-.27.51,0,1.32s-.34,1.21-.23,1.34.45-.06.59.34-.29.22-.44.33-.07.27,0,.49.26.08.19.15a1.74,1.74,0,0,1-.67.47c-.38.12-.41-.08-.65.2s-.41.52-.66.84-.43.21-.7.43-.37.4-.69.67a8.33,8.33,0,0,0-1.47,1.24c-.4.54-.29.68-.49,1.55s.49,2.38.92,3.81.61,1,.55,1.49a2.39,2.39,0,0,1-.57,1.32c-.3.32-.48-.22-.91-.54s-.09-.54-.5-1.2a2.25,2.25,0,0,1-.43-1.37,6.58,6.58,0,0,0-.34-1.7c-.22-.52-.7-1.18-1.41-.92s-.53.14-.91,0-1.41-.53-1.93-.25-2.15-.08-2.49,0-.6.11-.6.34-.14.28.46.44.52.35.48.61-.49-.14-.73-.23-.46.19-.87.19-.49-.4-.86-.46a3.16,3.16,0,0,1-.87-.13,3.39,3.39,0,0,0-1.24-.35,11.74,11.74,0,0,0-2.77,1.65,4.69,4.69,0,0,0-1.5,1.57c-.18.46-.19.5.42,1.18s.32.56.2,1-.47.85-.9,1.84-.18,1.47.34,2.42a8.63,8.63,0,0,0,1.39,2,5.59,5.59,0,0,0,1.07,1,1.59,1.59,0,0,1,.59.37c.16.17.12.24.68.09a5.93,5.93,0,0,1,1.37-.38,1.47,1.47,0,0,1,1,.22c.23.21.26.09.26,0a2.45,2.45,0,0,1,.23-.64,5.75,5.75,0,0,0,.68-1.3c.09-.41.09-1.24.61-1.29a12.81,12.81,0,0,1,2.63-.25c1,.07.56.56.3,1.09s-.37.58-.37,1,.11.4-.21.64-.12-.14-.25.1a2,2,0,0,1-.55.5c.06,0,.21.4.21.62v.87c0,.54-1,1.09-1,1.09a2.07,2.07,0,0,0,1,.22,4.24,4.24,0,0,1,1.83.28c.59.27,1.72-.23,2.55.19s.53.66.59,1a11.13,11.13,0,0,1,.09,2c-.06.3-.45,1.15-.65,1.76s.59,1,1.33,1.54a6.1,6.1,0,0,0,1.77.83c.38.11,1.1-.58,2.4-.5A2,2,0,0,1,92,126.68a5.79,5.79,0,0,1,.74-1.62c.6-.94.62-1.21,1.42-1.52s1.07-.35,2.37-.77,1.06-.11,1.74,0a19.1,19.1,0,0,1,3.82.66c1.56.47,4,.61,4.88,1s1.33,1.46,2.28,2.34,2.12,1.68,2.63,2.1,3.31.8,3.93,1a3.12,3.12,0,0,1,1.54,1.87c.06.61.68.91,1.54,1.27s1.12.77,1.68,1.87.39,1.41,1.16,1.68,6.09,1.71,7.42,2.24a33.82,33.82,0,0,1,3.46,2.09c.44.16,1.24-.14,1.6,0s-.21,1.24.23,2,.48.8.21,1.35-1.33,1.87-1.74,2.53a4.81,4.81,0,0,1-1.81,1.35c-.5.27-1,0-.5.55s0,1-.36,1.52,0,.44-.09,2,0,3.34-.17,4-1.21-.6-2.4.89-1.51,2.61-2.22,2.78a9.33,9.33,0,0,0-2.92,1.51,3.51,3.51,0,0,0-1,1.49c-.35.77-.71,2.34-1.09,3.3s-1,1.52-2.43,2.81a33.72,33.72,0,0,0-3,3.64c-.91,1-.68.8-.87,1-.49.49-2.51-.79-2-.08.39.52-.21,0,.11.49s.57.69-.14,1.57-1.53.71-2.1.85-1.4-.58-1.45-.22a2.51,2.51,0,0,1-.83,1.47c-.44.22-1.63.55-1.6.69.56,2.61,1.71,2.88.49,2.76-3.33-.33-1-1.12-3.27,3.73-.35.75-.71.36-.65,1.24s0,1.55.47,2.1.15.52-.65,1.26a6.25,6.25,0,0,0-1.59,1.77c-.74,1.13-1.45,1.07-1.19,1.93s.33,2.12.77,3.38,1.36,1,2.81,1.93,1.63.41,2.34.63-.51.28-1.78.5a8,8,0,0,1-3,.28A15.94,15.94,0,0,1,97,198a7.7,7.7,0,0,1-2.28-2.37c-.41-.91-.71-1.82-1.24-3.06s-.15-2,.09-4.74a43.07,43.07,0,0,1,.8-6.3c.38-1.46,1.57-8,1.89-9.64s1.83-8.51,2-9.59a25.24,25.24,0,0,1,.45-3,18,18,0,0,0,.08-3.36c0-.11-.08-.19-.41-1.21a3,3,0,0,0-1.6-1.88c-.73-.44-1.51-1-2.1-1.4a8.68,8.68,0,0,1-1.89-1.74,15.63,15.63,0,0,1-1.45-2.89,40.51,40.51,0,0,0-2.39-4.27,8,8,0,0,1-1.57-3.08c-.5-1.57.44-1.6.62-2.48a12.88,12.88,0,0,1,1.42-3c.65-1.24,1.51-1.6,2-2.7s.12-1.1-.06-2.18.06-.9-.27-1.48-.5-1.3-.79-1.49-.74-.33-1,0-.74,1.19-1,1.24-.42-.28-.6-.47-1-.19-1.21-.38-.62-.22-.91-.36a13.52,13.52,0,0,1-1.78-1,2.31,2.31,0,0,1-.74-1.65c0-.72-.62-1-2-2A8.29,8.29,0,0,0,77.27,120c-1.68-.41-2.36-1.6-2.93-1.93s-.5-.68-1.74-.55a8.51,8.51,0,0,1-3.7-.93,26.24,26.24,0,0,1-3.34-1.13c-.71-.47-2-.64-2.48-1.76s-.45-.69-.24-1.68-1.21-1.82-2.07-2.76-1.51-1.07-2-2.23-1.1-1.1-2-1.93-.89-1.87-1.25-2.81S52.9,100,52.9,100s.62,1.57.89,2.2a23.67,23.67,0,0,0,1.6,3.28c.71,1.13,1.33,1.4,2,2.53s0,1.82-.21,1.38S56,108.79,56,108.26a2.59,2.59,0,0,0-.45-1.26c-.2-.42-1.12-.89-2-1.6s-1.5-1-.94-1,1.36.52,1.21.19-1.15-1.35-1.63-2.06a15,15,0,0,1-1.09-2.73A4.8,4.8,0,0,0,48,97.3c-.86-.08-1.09-.49-1.39-1.38a15.59,15.59,0,0,0-.74-2.5c-.38-.69-2-3-2.07-3.89s-.5-3.44.09-4.87.44-4.63.36-5.26-1.16-1.85-1.16-2.32.62-.19,1.1,0,1.47.55,1.47.55a12.94,12.94,0,0,0-1.24-1.93,6.7,6.7,0,0,0-2.48-1.26,2.81,2.81,0,0,1-1.75-.88c-.32-.53-.68-1.22-.91-1.66s-1.25-1-1.48-1.43-.18-1.38-.5-1.84A1.16,1.16,0,0,0,36,68c-.53.2-.7-.27-1.12-1a3,3,0,0,0-1.6-1.1A4.67,4.67,0,0,1,32,64.36a10.37,10.37,0,0,0-2-2.23,52.82,52.82,0,0,0-5.17-1.82A9.16,9.16,0,0,1,23,60.4c-.35-.12-1.57-1.16-2.19-1.38s-1.06.25-1.36.93A8.82,8.82,0,0,1,17,62.35c-.8.52-1.45.58-1.39.3a4.94,4.94,0,0,1,.3-1.37c.26-.66.41-.86,1.24-1.27s.79-.44.47-.41-.56-.06.09-.44.92-.45.89-.78-1.42.45-2.31,1.16A8,8,0,0,0,14,62c-.77,1.27.09.8-.56,1.62S10.61,66.15,10,66.78a17.57,17.57,0,0,1-4.44,2.37,5.21,5.21,0,0,0-2.07.91c-.53.44-1.86.58-1.42.28s1.27-1,1.84-1.33a24.44,24.44,0,0,1,2.51-1.1,8,8,0,0,0,2.28-1.62,15,15,0,0,0,1.45-2.15c.41-.66.5-1-.36-.69a3.56,3.56,0,0,1-2.19,0c-.44-.16-1.6.53-2,.22s0-.93-.24-1.24-1.18-.11-1.77-.22-1.42-.58-1.42-1.4-.59-1.54-.27-2.18.8-.8,1.33-1.15a7.61,7.61,0,0,1,2.31-.83,1.74,1.74,0,0,0,1-.58c.26-.27-.62-1.27-.62-1.27a5.39,5.39,0,0,1,.5-.33c.35-.22.09-.68-.53-.6s-2,.71-2.78.93-1.95.09-1.92-.27.2-.58-.09-.86S.52,53.1.82,53,3,51.8,3,51.8a2.6,2.6,0,0,0,1.36.8c.71.08,2.22-1.24,2.22-1.24-1-.58-.74-.74-.74-.74a7.18,7.18,0,0,1-1.9-.25,1.54,1.54,0,0,1-.56-1c-.09-.38-1.59-.68-1.18-1.32s1.18-.85,1.69-1.49A6,6,0,0,1,6.23,44a35,35,0,0,0,4-1.81c.76-.55,1.12,0,1.42,0s2.13-.08,2.83-.08.83.8,1.07,1,6.48.39,6.48.39a56.21,56.21,0,0,1,6.35.38c1.07.31,3,1.1,3,1.1C32.51,44.9,32.41,43.48,33.13,43.48Z" style="fill:#7e76ce;opacity:0.09000000357627869;isolation:isolate"/><path d="M104.24,11.54a4.1,4.1,0,0,1-2.66,2.81,55,55,0,0,0-6.21,2.42c-.18.11.24,1.32.77,1.93s1,1,1.51,1.62,1.3.55,2,1.19,1.12.41,2.9.44,1.3.16,3.28.27,4.06.28,4.74.88,1.65,3,2.27,4.41,1.72,3.8,1.72,4-.68,2-.68,2.23a2.44,2.44,0,0,0,.68,1.13c.32.39.15.69.09,1a3.55,3.55,0,0,0,.41,1.38c.06.1,1-.89,1.51-1s2,1,2,1.79c0,1.81.49,1.19-2.45,3.33-.39.28-.77,2.45-.48,3.5s1,2.29,1.57,3.77A38.2,38.2,0,0,0,120,53.14c.53,1,.68,2.28,1.86,2.59s2.31.71,3.17.9,1.42.47,1.83-.33,1.24-3.82,1.93-6-.07-2.86,1.53-3.36,4.14-1.48,4.82-1.79.57-2.48,2.07-3.19a17.13,17.13,0,0,1,3.2-1.13,20.36,20.36,0,0,0,5-2.45c1.47-1,1.89-.5,2.42-1.46s-.53-2.37-.65-3.8.47-1.52.77-2.81.44-2.15,1.6-3,1.77-1.38,1.56-2.21a14.11,14.11,0,0,1-.79-3c0-.91.2-.39-.27-1.65a2.66,2.66,0,0,1,0-2.62c.44-1.18,1.63-.88,1.54-1.4s-1.9-1.33-1.92-2.79a2.79,2.79,0,0,1,.62-2.25c.29-.36,3.31-2.76,3.52-3s-.06-.82,1.42-1.54,2-1.18,2.54-1.41,1.45-.19-.27-.68-2.1-.72-3.22-.58-1.51.77-3.52,1a18.09,18.09,0,0,0-4.29,1.13s.68-.6.09-1.18,1.54-2.48,1.89-2.7-2.78-1-4.41-1.3S139.08-.11,137.25,0a41.25,41.25,0,0,0-5.44.42C130.89.74,131,1.92,130,2s-3-.61-4.44-.39a28,28,0,0,0-4.11,1.3c-.27.05.92.77,1.68.93s1.78,1.77,1.78,1.77-2.07-.69-4.17-1.27a10.9,10.9,0,0,0-5.41.25,14.22,14.22,0,0,1-3.7.8c-1.73,0-3.63,1.45-4.63,2.11s-4,2.43-4.8,2.84-.47.61.36.83S104.24,11.54,104.24,11.54Z" style="fill:#7e76ce;opacity:0.09000000357627869;isolation:isolate"/><path d="M60.41,34.3c.24,1,.24,2.46-.31,1.84s-1-1.89-1.89-1.38-1.86.37-1.7.26,0-.66-.47-.83-.73.1-1.2.37-2,.64-1.37.17.42-.74.2-1.29-1.77.39-2.6,1a9.58,9.58,0,0,0-1.82,2.1c-.49.6-.13,1,.62,1.21s2,.37.94.73-1.77.63-1.26.94a3.83,3.83,0,0,0,2.29.26,6.34,6.34,0,0,1,3,0,8.69,8.69,0,0,0,2.27.37,4.55,4.55,0,0,1-1.48.5c-.94.16-2.68,0-3.57.16s-2.28.4-1.93.74A3.64,3.64,0,0,0,52,42.68c1.23.38,1.44,0,2.17.2s.34,1,.54,1.14a11.26,11.26,0,0,0,3-.37c1.38-.26.87-.48,2-.75s1.12-1.1,1.75-1.29.18.42.93.61.33.24,1.14.37S64.17,43,65,43s1.71-.59,1.6-.68a.67.67,0,0,1-.16-.7c.08-.36-.79.08-1.1.26s-.3-.5.37-.83,1.26,0,1.66,0,0-1.14-.67-1.32a13.51,13.51,0,0,1-2.1-1.21c-1.1-.59-.51-.84-.82-1.61s-1-3-1.58-3.46-1.22-.29-1.81-.69A3.78,3.78,0,0,0,60.41,34.3Z" style="fill:#7e76ce;opacity:0.09000000357627869;isolation:isolate"/><path d="M44.05,32.74c.26.74.29.28-.22,1.09s-.22,1.1-.57,1.7-1.3,1.42-1,1.82,1.25.64,1.64,1,.79,1,1.5.71a7.8,7.8,0,0,0,1.44-.66c.49-.26.91-.55.89-1.19s0-1,.16-.9.51.35.66-.08a3.9,3.9,0,0,1,.77-1.3c.34-.33,1.3-.66,1.76-1a11.27,11.27,0,0,0,1.44-1.14c.22-.34-.4-.59-.77-.74s-.81-.73-1.68-.73-1.34.66-1.3.37-.59-.45-.94-.57A3.16,3.16,0,0,0,46,30.83a13.06,13.06,0,0,0-2.48.46C42.75,31.51,43.79,32,44.05,32.74Z" style="fill:#7e76ce;opacity:0.09000000357627869;isolation:isolate"/><path d="M69.72,41.54c-.12.16-.63.33-.94.7s.66.16,1,.27.55.42.81.52a4.73,4.73,0,0,0,2.21-.13c.57-.28.63-.37.57-.5a8.67,8.67,0,0,0-2-1.67c-.83-.44-.85-.46-1-.35A7.8,7.8,0,0,0,69.72,41.54Z" style="fill:#7e76ce;opacity:0.09000000357627869;isolation:isolate"/><path d="M66,33c-.53.26-.92.58,0,1a17.08,17.08,0,0,1,1.82,1.23c.61.39.87,1.49,2.15,1a3.15,3.15,0,0,0,2-1.59c.21-.51-.18-.63-.49-1.11s-.4-.67-1-.6-.87.07-.87.07a3.74,3.74,0,0,1,1.15-.9c.71-.35.11-.59.45-.92s-.85-.49-1.36-.36-.53,0-1.38-.08-2.19.74-2.13,1,.69.17,1.28.5.77.29.18,1.23-.91-.22-1.1-.37S66.55,32.67,66,33Z" style="fill:#7e76ce;opacity:0.09000000357627869;isolation:isolate"/><path d="M62.21,31.26c-.89.08-1.19.69-.85.79s.55-.1,1.08.47,1,.88,1.23,0S63.57,31.13,62.21,31.26Z" style="fill:#7e76ce;opacity:0.09000000357627869;isolation:isolate"/><path d="M48,24.15c-1,.79-1.18,1.41-2,1.91s-.59.92-.33,1.19,1,0,1.38-.2.65-.64.86-.36,1.13-.94,1.48-1.35a3,3,0,0,1,1-.8c.1,0-.34.47-.18.86s.87.4,1.5-.26.06-1.26.55-1.78.91-.44-.06-.9a1.39,1.39,0,0,0-1.77.3A6.29,6.29,0,0,0,48,24.15Z" style="fill:#7e76ce;opacity:0.09000000357627869;isolation:isolate"/><path d="M54,25.4a4.23,4.23,0,0,0-1.74.51,3.32,3.32,0,0,0-1.54,2c-.21.57.1.57,1,.9A1.86,1.86,0,0,0,54,28c.27-.79.61.18.45.59s.59,0,1-.15a5.82,5.82,0,0,1,1.5-.26,5.58,5.58,0,0,1-1.8,1,13.11,13.11,0,0,1-1.93.52c-.26,0,.24.42,1.32.64s1.73-.66,3.29-1.25,1.48-.7,2-.55,1.07-.26,1.7-.4.89.09,1.16-.85.77-1.83-.12-1.89-.94-.05-1.06,1-.2.38-.2.38-.59-.88-.94-1.34a18,18,0,0,0-1-1.56c-.39-.39-.57.16-1.18.84s-.12.94.49,1.23,1,1.05.75,1.25-.63,0-1.75.1-1.09-.35-1.41-.5.54-.46-.67-.95S54.38,25.38,54,25.4Z" style="fill:#7e76ce;opacity:0.09000000357627869;isolation:isolate"/><path d="M50.34,26.35a6.37,6.37,0,0,0-1.75,1.34c-.24.37.25.31.74.29S49.93,27.06,50.34,26.35Z" style="fill:#7e76ce;opacity:0.09000000357627869;isolation:isolate"/><path d="M53.45,23.92c-.4.18-.4.32.26.39s1-.21.91-.49S53.78,23.77,53.45,23.92Z" style="fill:#7e76ce;opacity:0.09000000357627869;isolation:isolate"/><path d="M56.82,20.43a4.7,4.7,0,0,0-1.79.74,1.7,1.7,0,0,0,.21,1.08c.2.38.27.43,1.37.14s1.86-.87,1.5-1-.61-.22-.92-.31.29-.22,1-.45S59.18,20,56.82,20.43Z" style="fill:#7e76ce;opacity:0.09000000357627869;isolation:isolate"/><path d="M53.08,21c-.31.14-.42.15.23.4s1.35.23,1.26,0A1.1,1.1,0,0,0,53.08,21Z" style="fill:#7e76ce;opacity:0.09000000357627869;isolation:isolate"/><path d="M55.62,19.2a1.86,1.86,0,0,0-.89.86c-.14.18.7-.12,1.08-.22s.47.14.85-.19,1.11,0,1.78-.14.78-.58.63-1S57.39,18.5,55.62,19.2Z" style="fill:#7e76ce;opacity:0.09000000357627869;isolation:isolate"/><path d="M62.31,20.86c-.19.09-.12.38,0,.72s.19.26.53.39a2.56,2.56,0,0,1,.75.47c.08.09.13.11.26-.22s-.06-.27-.44-.71S62.78,20.63,62.31,20.86Z" style="fill:#7e76ce;opacity:0.09000000357627869;isolation:isolate"/><path d="M64.58,23.75a1.16,1.16,0,0,0-1,.24c-.19.1.1.31.23.7s0,.53.76.58,1-.08,1-.56S65.06,23.88,64.58,23.75Z" style="fill:#7e76ce;opacity:0.09000000357627869;isolation:isolate"/><path d="M67.49,24.61c-.46-.34-.69-.62-1.16-.42s-.08.43-.08.56.57,0,.58.29.19.44-.5.48-.88,0-1.14.21.51,0,.75.28.64.35,1.3.25L68.79,26a5.59,5.59,0,0,0-.68.78c-.19.33-.27.78.07,1s.39-.23,1.34-.25A1.41,1.41,0,0,0,70.77,27a.86.86,0,0,1-.19-.69,1.88,1.88,0,0,0,0-.58,5.58,5.58,0,0,1,.47.38s-.07-.28-.21-.8,0-.55-.17-1.24-.12-.85-.84-.83-1.21.27-1.81.27-.84.11-.41.33.5.48.7.73a1.67,1.67,0,0,1,.18.82Z" style="fill:#7e76ce;opacity:0.09000000357627869;isolation:isolate"/><path d="M63.89,27.23h0a.85.85,0,0,0-.42.71c0,.24.4.1,1.06-.13S64.83,26.92,63.89,27.23Z" style="fill:#7e76ce;opacity:0.09000000357627869;isolation:isolate"/><path d="M73.2,26a4.9,4.9,0,0,0-1.3,1c-.32.36,0,.41.78.82s1.69.5,2.08.06S74.58,25.22,73.2,26Z" style="fill:#7e76ce;opacity:0.09000000357627869;isolation:isolate"/><path d="M77,22.77a2.67,2.67,0,0,1-1.94-.13,11.64,11.64,0,0,0-3.15-.45c-.42,0-.22.2.21.9s.54,1,1.43.73,1.61-.37,2.26.56,1,1.23.46,1.57-.28.9,0,1.62,1,.68,2,.68,7.26-.09,8.24-.27a6.3,6.3,0,0,0,2.37-1.38c.51-.37.79-1,.08-1.38a5.6,5.6,0,0,0-2.51-.82c-.8,0-1.48.41-2.69.54s-1,.7-2,.73-.56.51-1.91-.05-2.34-1.24-1.7-1.33,1.15-.18.8-.48S78,22.68,77,22.77Z" style="fill:#7e76ce;opacity:0.09000000357627869;isolation:isolate"/><path d="M64.47,17.65c.65.22.81.39.08.58s-1.28.7-.56.6a7.66,7.66,0,0,1,2.28.23c.93.15.86.05,1.27.57A1.24,1.24,0,0,0,69,20c.63-.16.72-.2.31-.65s-.85-1.3-1.41-1.63-1-.8-1.6-.74-.69.07-1.18-.59-.87-.35-1.58-.17-.94.69-1.21.91C61.8,17.6,63.82,17.43,64.47,17.65Z" style="fill:#7e76ce;opacity:0.09000000357627869;isolation:isolate"/><path d="M73,10.9c-.77,1-1.4,1.78-.52,1.88s1.25-.07,1.31.2-.15.47-1.45.47-.9.29-.17,1.14.8.57,1.9.54,1.48-.43,2.4-.19,1.2.47.37.71-2.78.72-2.34,1.13a7.59,7.59,0,0,0,2.44,1.5c.62.1.76-.41,2.1-.26s1,.29,1.17-.08.89-1.32,1-1.67.51-.56,1.25-.73,1-.4.28-.64-1.48-.36-1.4-.55.5-.76.2-1-.76-.28-1.15-.43-.81-.85-1.3-1.15a12,12,0,0,1-1.51-.79C77,10.48,76,9.37,74.85,9.43,74.09,9.47,73.75,9.94,73,10.9Z" style="fill:#7e76ce;opacity:0.09000000357627869;isolation:isolate"/><path d="M71.47,19c-.29.15-1,.18-.48.63s.4.47,1.09.21a5.52,5.52,0,0,0,1.79-1.1c.09-.2-.69-.57-1.23-.73a14.37,14.37,0,0,0-2-.9C69,16.63,71.77,18.81,71.47,19Z" style="fill:#7e76ce;opacity:0.09000000357627869;isolation:isolate"/><path d="M107.66,4.63c-1.23-.33-5.6-1.17-7-.84S99.29,3,97.32,3.31s-5,.11-6,.26.47.55,1,.88-2.45-.37-4.7.26-3.71,1-1.3,1.87A15.93,15.93,0,0,1,89,7.75a34.35,34.35,0,0,1-4.37-1.06c-1.31-.51-.6-.48-3,.22S76.86,8,77,8.71s2,1.73,3.19,2a11.66,11.66,0,0,0,3.94-.44c.2-.07-1,1-1,1s1.26-.25,2.68-.62,2.52-.77,3.86-1.25a11.31,11.31,0,0,0,1.58-.63A20.48,20.48,0,0,1,87.3,11.2a17.63,17.63,0,0,1-4.69,1.06c-1,0-.83.67.15,1.18a13.77,13.77,0,0,1,2.25,2,1.53,1.53,0,0,1,.59,1,2.75,2.75,0,0,0-3.23,0c-1.7,1.21-1.46,1.83-1,2s1.94.29,2.21.81,2.25-.48,2.25-.48S84.83,20,83.9,20s-.91-.81-2.29-.66-1.3.48-.71,1,1.07.63,0,1.1-1.5.63-1.54,1.22,1.34.58,2.21.58S83.29,23,84.86,23s1.38-.55,2-.55,1.19.19,1,.77.24.22,2-.4,1-1.58.83-1.91-.75-.44-1.14-.62,1.18-1.8.94-2.35,1.94-.11,2.92-1.4.63-2.24-.08-2.46,1.31-.07,1.93-.44a9.24,9.24,0,0,0,2.57-1.51c.55-.69.75-1-.59-.8s1.93-.59,3.51-1.62,3.39-2.24,3.78-2.53.75-.15-1.1,0S99.37,7,100.59,6.9s4.85-.59,5.8-1.29A11,11,0,0,1,107.66,4.63Z" style="fill:#7e76ce;opacity:0.09000000357627869;isolation:isolate"/><path d="M85.57,30.12c-2-.19-4.85-.66-5.44,1a51.67,51.67,0,0,0-1.58,6.14c-.07.7,2.37,1.72,4.07,1.8s4.45.18,3.9-.22-.08-.63,1.5-.55,1.73-.33,1.73-.66.28.4,1.38,1,2.06,2.24,3,3.19,3.19,2.24,2.76,3,.47,3.3-2.92,3.89-3.59.18-3.55,1,.2,1.11,1.54,1.11,3.2-1.11,3.83-.3a4,4,0,0,0,2,1.29c.55.18-.67.51-1,.62s.67.22,2.6,1.14,4.26,1,3.12.37-1.7-1.87-2.21-2.28,0-.07.87.15A5.83,5.83,0,0,1,103.4,53c.39.33.59-.11.86-1.39s-.11-1.29-1.65-2.32-2-1.83-2.17-2.57.79-.88,1.18-1.39,1.5.92,2.25,1.76,1.38,2.31,2,1.25a13.67,13.67,0,0,0,1.14-4c0-.55-.59,0-3.11-1.22a21.33,21.33,0,0,0-4.06-1.72c-.24,0,.67-.48,1.77-1s1.58-.48-.79-2.72-3-2.72-4.57-2.86-2-1.77-3.08-2.32-3.66.67-4.41.85-.52.48-1.46-.88S85.57,30.12,85.57,30.12Z" style="fill:#7e76ce;opacity:0.09000000357627869;isolation:isolate"/><path d="M87.35,30.12c-1,.11.59,1.91,1.85,2a6,6,0,0,0,2.6-.62C92.08,31.4,88.89,29.93,87.35,30.12Z" style="fill:#7e76ce;opacity:0.09000000357627869;isolation:isolate"/><path d="M82.92,48.33a9.48,9.48,0,0,0-.62,2.26A4,4,0,0,1,82,51.91c-.14.47.48-.08.89.61s.24.88,1,.08a2.31,2.31,0,0,1,2.6-.74c1,.33,1.83.47,1.48-.17s-.83-.58-1.54-1.43a4.23,4.23,0,0,0-2.13-1.41C83.36,48.52,83.27,47.48,82.92,48.33Z" style="fill:#7e76ce;opacity:0.09000000357627869;isolation:isolate"/><g style="opacity:0.09000000357627869"><path d="M90.36,112.68a3.2,3.2,0,0,0-2.68-2,4.47,4.47,0,0,0-3.27.6c-.71.24.66.35,1.57,0a1.75,1.75,0,0,1,1.73.08c.12.17-.31.27-.46.09s-.19.43.84.8,1.29.55,1.39,1a2.57,2.57,0,0,0,.33,1c.24.37.32.53-.11.69s-.28.14,0,.34a4.21,4.21,0,0,0,1.86.6c.9.08,1.2.24.57-.58S90.46,112.88,90.36,112.68Z" style="fill:#7e76ce;opacity:0.4399999976158142;isolation:isolate"/><path d="M93.23,116.71a1.46,1.46,0,0,1,.32,1.36c0,.3-.58.07-1.57-.19s-.84-.14,0,.33,1.42.35,1.38,1,.79.06,1.16-.3.34,0,1.87.19,1.84.5,1.6-.17.7-.61-.66-1.25S92.66,116.13,93.23,116.71Z" style="fill:#7e76ce;opacity:0.4399999976158142;isolation:isolate"/><path d="M88.87,117.09c-.57-.63-1.29-.73-1.3-.18s.2.51.73.65S89.24,117.5,88.87,117.09Z" style="fill:#7e76ce;opacity:0.4399999976158142;isolation:isolate"/><path d="M100,119.86c-.63-.22-.75.25-.34.65s1.06.25,1.69.22S101.07,120.23,100,119.86Z" style="fill:#7e76ce;opacity:0.4399999976158142;isolation:isolate"/></g><path d="M92.78,43c-.82.35-1.31.59-.59,1.54s1.16,1.55,1.44.86S94.19,42.41,92.78,43Z" style="fill:#7e76ce;opacity:0.09000000357627869;isolation:isolate"/><path d="M86.15,53.2c-1.25.2-1.66.24-1.46.94s.53.58,1.38.16S87.51,53,86.15,53.2Z" style="fill:#7e76ce;opacity:0.09000000357627869;isolation:isolate"/><path d="M88.75,54.26c-.22.07-.28.55,0,1s.8-.14,1-.68S89.54,54,88.75,54.26Z" style="fill:#7e76ce;opacity:0.09000000357627869;isolation:isolate"/><path d="M75.1,20.37c-1.18,0-3,.46-2,.47a25.56,25.56,0,0,0,3.39.13c1.6-.09,1.76-.2,1.8-1S77.27,20.29,75.1,20.37Z" style="fill:#7e76ce;opacity:0.09000000357627869;isolation:isolate"/><path d="M67.71,13.89c-1.21.37-.91.62.51,1.25s1.46.33,1.3-.85S68.42,13.67,67.71,13.89Z" style="fill:#7e76ce;opacity:0.09000000357627869;isolation:isolate"/><path d="M152,44.62c-1.49.42-2,.17-2.28.93s-.86.35-1.2.44-.82,2.21-1,1.89a5.11,5.11,0,0,1-.67-1.21c-.34-.72.11-.6-.54-1.36s-2-.68-2-.37.89.58.56.93-.95.69-1.45,1c-.3.26.59.14,1.15,0s.94.42,1.17.81-.26.77-.5,1,.81.15,1.23.23.65.43.36.91,1.25.06,2.11,0,1.07.59,2.36.19a7.9,7.9,0,0,0,3.08-1.25c1.18-.87,1.09-.67,1.87-1.23s.59-.73.62-1.35.52.17.33-.77-1.14-.68-1.81-.75-.65-.61-1-.77S153.51,44.2,152,44.62Z" style="fill:#7e76ce;opacity:0.09000000357627869;isolation:isolate"/><path d="M251.82,125.52a2.62,2.62,0,0,0-.16,1,13,13,0,0,0,0,1.53c.06.53.07.84.34,1a.94.94,0,0,0,.92,0c.45-.21.88-.59.65-1.16a14.71,14.71,0,0,0-.9-1.77C252.41,125.63,251.93,125.1,251.82,125.52Z" style="fill:#7e76ce;opacity:0.09000000357627869;isolation:isolate"/><path d="M251.46,124.84c0,.21.11.16.21.31s.21,0,.07-.17-.12-.22-.12-.22-.18-.06-.18.11" style="fill:#7e76ce;opacity:0.09000000357627869;isolation:isolate"/><path d="M294,154.15l-.05,0c-.81.82-1.55.59-2.94,1s-3.87,1.87-4.05,2.51,0,.71-.18.63a2.1,2.1,0,0,1-.47-.47,3.09,3.09,0,0,0-.3,1.46,9.08,9.08,0,0,1,.39,2c0,.89-.36,1.41-.33,2s1,1.77,1.31,2.49a4.3,4.3,0,0,1,.59,1.81c.14,1.3.82,2,.14,2.7s-1.18.55-.35,1.27a2.49,2.49,0,0,0,2.84.71c1.33-.46,1-.88,2-1.1a11.76,11.76,0,0,1,2.13-.49c.89-.06,1.51,0,1.83-.61s.09-.6,1-1.05.8-.55,1.39-.66,1,.31,1.77-.33.21-.69,2-.69a8.37,8.37,0,0,1,3.17.47,5,5,0,0,1,2,1.21c.27.42.62.91.74.91s.27,0,.68-.38a14.85,14.85,0,0,1,1.6-1.24,3,3,0,0,1-.33,1.21,1.55,1.55,0,0,0-.27,1c0,.17.69-.52.78-.55s.17,1.21.26,1.32.36.06.62.42a4.58,4.58,0,0,1,.89,1.32,3.19,3.19,0,0,0,2.1,1.49,5.8,5.8,0,0,0,1.86,0c.53-.08.56-.72,1.13-.47s0,.77,1.3.66a3.61,3.61,0,0,0,2.22-.91c.53-.35.59.5,1.27-.44s.8-.71.91-1.84a4.22,4.22,0,0,1,.74-2.43c.65-1.07.8-.55,1.25-2.12a15.45,15.45,0,0,0,.94-4.35,6.14,6.14,0,0,0-.26-1.9c-.3-1.46-.09-1.29-1-1.9s-1.18-.44-1.42-1.29.06-1.11-.38-1.11-.83.2-1.1-.38a3.5,3.5,0,0,0-.74-1.35c-.5-.55-1-.44-1.89-.85s-.44-.53-.44-1.24.05-1.48-.68-1.81-.3.18-.3-1,0-1-.59-1.22-.79-.18-1.16-.9-.87-1.89-1.05-2.36-.39.05-.63.4a3.65,3.65,0,0,0-.57,1.84c0,.71.31,1.12.31,2.07a4.58,4.58,0,0,1-1.08,2.46c-.41.55-.75.06-1.11-.09s-.43-.68-1.18-1.05a12.53,12.53,0,0,1-2.76-1.26c-.63-.57-.2-.59,0-1.18a3,3,0,0,1,.95-1.45c.47-.39.33-.53-.26-.86a5.14,5.14,0,0,0-2.42-.35c-1,0-1.6-.07-1.54.49s.65.79-.2.63-1.58-.24-1.95.16a2.84,2.84,0,0,0-.67,1.51c-.22.86.06.92-.3.92a13.32,13.32,0,0,1-2.22-.88c-.48-.21-.73-.19-1.28.33a31.43,31.43,0,0,1-3.18,2.58C294.71,152,294.75,151.89,294,154.15Z" style="fill:#7e76ce;opacity:0.09000000357627869;isolation:isolate"/><path d="M267.72,129.32c-.42,0-.65-.16-.14.5a7.12,7.12,0,0,0,1.14,1.25c.5.46.67-.33,1,.55s.24.9.61,1.23.69.42.79.75a2.22,2.22,0,0,0,.65,1.21,1.57,1.57,0,0,1,.69,1c.26.69.65,1.23.85,1.84s1.32,1.17,1.89,1.91,1.54,1.8,1.7,1.5.57,0,.86-.11.4-.53.59-1.56a1.66,1.66,0,0,0-.45-1.74c-.28-.24-.79-.3-.93-.52s-.37-1-.71-1.21-.41,0-.41-.57.39-.53-.1-.86a2.5,2.5,0,0,1-.71-.74c-.16-.16-1.22-.42-1.5-.71s-1.44-.83-2-1.38a7.06,7.06,0,0,1-1.34-1.39C270.08,129.89,269.53,129.56,267.72,129.32Z" style="fill:#7e76ce;opacity:0.09000000357627869;isolation:isolate"/><path d="M279.19,141.17c-.47,0-.71-.28-1,.29s-.28.57.21.57.4.26.38.33-.24-.06.77.35a2.49,2.49,0,0,0,2,.09c.28-.15.37.37,1.75.59s2.11-.13,3,.09.67-.11,0-.59-.57-.22-1.2-.68a4.35,4.35,0,0,0-1.93-.55c-.42-.07.35.44-.91.28s-.81.11-1.46-.32-.65-.49-1.09-.56S279.19,141.17,279.19,141.17Z" style="fill:#7e76ce;opacity:0.09000000357627869;isolation:isolate"/><path d="M289.21,143.18c-.36.12-1.09.32-.75.46s.08.24,1.12.15a4.33,4.33,0,0,0,2.09-.44c.14-.22-.17-.07-.61-.2s-.39.09-1,.16A1.2,1.2,0,0,1,289.21,143.18Z" style="fill:#7e76ce;opacity:0.09000000357627869;isolation:isolate"/><path d="M292.88,143.11c-.7.09-.62.24-.06.41a2.86,2.86,0,0,0,1.48.12,5.83,5.83,0,0,1,1.24-.34c.77-.13,1-.12,1.63-.19l.62-.07s-.06-.13-.48-.11-.71,0-1.12,0-1.12.37-1.42.35-.87-.2-1-.11S293.63,143,292.88,143.11Z" style="fill:#7e76ce;opacity:0.09000000357627869;isolation:isolate"/><path d="M296.82,144h0c-.48.33-.5.43-.46.69a.53.53,0,0,1,0,.39,2.15,2.15,0,0,0,1.26-.59,2,2,0,0,1,1.13-.74,4.26,4.26,0,0,0,1.2-.82,3.64,3.64,0,0,1-.93.06,1.73,1.73,0,0,0-1.12.38C297.66,143.54,298,143.57,296.82,144Z" style="fill:#7e76ce;opacity:0.09000000357627869;isolation:isolate"/><path d="M292.7,144.3c-.51-.37-1-.32-1-.09s-.45.21.28.48,1.41.62,1.36.26S292.92,144.46,292.7,144.3Z" style="fill:#7e76ce;opacity:0.09000000357627869;isolation:isolate"/><path d="M288,129c-.3.42.27.31-.16.68s-.77.2-1.2.75a6.44,6.44,0,0,1-1.36,1.14c-.28.2-1.17.44-1.56,1a.52.52,0,0,0,0,.74.36.36,0,0,0,.12.08s-.24.11-.87-.13-.67-.53-.67-.53-.45,0-.71.66-.4.75.06,1.16-.32.42-.22.7.1.79.37.84.34-.26.68.17.06,1.61.49,1.67.75-.13,1.12,0a1.33,1.33,0,0,0,1.15.15,1.68,1.68,0,0,1,1.28.15,4.18,4.18,0,0,0,1.63.42c.46,0,.54.07.61-.57s0-1.25.58-1.74.57-.5.61-1a2.51,2.51,0,0,1,.37-1.41c.34-.48.54.27.71-.09s.36-.37.26-.55-.61-.19-.81-.54.06-.53-.18-1.25-.37-.44,0-.84.61-.48.65-.79.18-.33.6-.62-.07-.16-.46-.45-1.14-1.4-1.59-1.39C289.22,127.45,288.28,128.57,288,129Z" style="fill:#7e76ce;opacity:0.09000000357627869;isolation:isolate"/><path d="M346.25,168c-.19-.14-.35,0,.08.48s.47.37.75.38.51,1,.67,1.29a4,4,0,0,0,.45.57,6.12,6.12,0,0,1,0,1.6c-.14.49-.43.71-.53,1.17s.45.33.81.48.29.15.16.55-.56.59-.56.66.81.53,1.23,0a7.77,7.77,0,0,0,1.24-1.76c.18-.54-.32-.3.25-.68s.5-.21.79-.68.61-1,.28-1.23-.71.31-1,.42a1,1,0,0,1-.94-.08c-.42-.2-.5-.2-.65-.56a2.12,2.12,0,0,0-.36-.57s-.12.62-.41.42-.22-.42-.44-.77a6.48,6.48,0,0,1-.35-.72c-.14-.26,0-.75-.71-.82S346.43,168.1,346.25,168Z" style="fill:#7e76ce;opacity:0.09000000357627869;isolation:isolate"/><path d="M346.37,174.64a6.74,6.74,0,0,0-1.05,1.15,5.11,5.11,0,0,0-.73,1.31,3.68,3.68,0,0,1-1.67,1.3,3.91,3.91,0,0,0-1.62,1.16c-.31.46-1.44,1.89-1.58,2s.53.34,1.23.34,1.77.62,2.36,0a25.19,25.19,0,0,0,1.56-2.72,6.72,6.72,0,0,1,1.32-1.29c.59-.53,1.58-1.52,1.58-1.91a3.88,3.88,0,0,0-.26-1,.74.74,0,0,1-.73.37C346.27,175.32,346.37,174.64,346.37,174.64Z" style="fill:#7e76ce;opacity:0.09000000357627869;isolation:isolate"/><path d="M341.72,181.69c-.7-.37-.83.32-.94,1s.3.1.9-.21S342,181.83,341.72,181.69Z" style="fill:#7e76ce;opacity:0.09000000357627869;isolation:isolate"/><path d="M318.27,176.88c-.78-.26-.65.48-.53,1a4.23,4.23,0,0,0,.57,1.45,1.88,1.88,0,0,0,1.84.42c.43-.2.74-.88,1.18-1.53a2.79,2.79,0,0,0,.55-1.76c-.08-.38-.63.35-1,.52a2,2,0,0,1-1.49.4A5.63,5.63,0,0,1,318.27,176.88Z" style="fill:#7e76ce;opacity:0.09000000357627869;isolation:isolate"/><path d="M308.45,137.46c-.63.14-.94-.41-1.46-1.47s-.9-1.21-2.2-.74-1.11.37-.24.7,1,.44,1.1.44,1.38.18,1.11.37-1.46.36-.71.88a21.07,21.07,0,0,0,2.4,1.14c2,1,2.29.26,2.92,1.54s.63,1.07.12,1.4-1.18.66-.91.69a16.71,16.71,0,0,0,2.13.22c1.34.08.08.85,1.58.85a2.62,2.62,0,0,0,2.48-1.18c.59-.7.71-.33,2,0s1.7,1.39,3.28,1.83,2.25,1,1.26.11a35.12,35.12,0,0,0-2.68-2.64c-1.34-1.06-1.42-1.18-1.82-2a6.79,6.79,0,0,0-3.31-2.39,32.74,32.74,0,0,0-4.22-1.21C309.4,135.47,309.08,137.31,308.45,137.46Z" style="fill:#7e76ce;opacity:0.09000000357627869;isolation:isolate"/><path d="M298.08,133.78c-.59.42-.66.16-1.11-.11s-.31.57-1.3.11-1.35-.68-2.4.1-.4,1.09-.42,1.64a11.54,11.54,0,0,1-1.21,2.68c-.31.57-.31.78-.07,1.14s.59.23.74.41a5,5,0,0,1-.18,2.11c-.17.48.42.57,1,.43s.07-.18.07-.68a12.57,12.57,0,0,0,.29-1.67v-1.38s.18-.09.4.23.54,1.22.81,1.67.54.8,1,.48a6.22,6.22,0,0,0,.81-.68s-.81-.25-.81-.53a1.41,1.41,0,0,0-.23-1.42c-.56-.91-.85-1-.14-1s.69-.76,1.1-1a2,2,0,0,1,1-.14,1.09,1.09,0,0,0-1.06-.25,7.55,7.55,0,0,0-1.74.57c-.54.3-1,.48-1.11-.07a3.88,3.88,0,0,1-.09-1.44c.07-.76.93-.18,1.57-.37s.64-.13,2,0,1.5-.23,1.91-.8a5.71,5.71,0,0,0,.67-1.24S298.67,133.37,298.08,133.78Z" style="fill:#7e76ce;opacity:0.09000000357627869;isolation:isolate"/><path d="M301.39,131.78c.13-.23-1,.79-1.24,1s0,.5.16.79a9.83,9.83,0,0,1,.18,1.53c.06.22.65.42.65.42a2.15,2.15,0,0,1,.19-1c.22-.31,0-.7,0-1.27S301,132.46,301.39,131.78Z" style="fill:#7e76ce;opacity:0.09000000357627869;isolation:isolate"/><path d="M299.13,137.81c-.91-.34-1.25-.12-1.25.36s-.1.7.87.7S300.8,138.45,299.13,137.81Z" style="fill:#7e76ce;opacity:0.09000000357627869;isolation:isolate"/><path d="M300.93,137.5c-.22.07-.46.78-.33,1.21s.28.14.79,0,.43-.5,1.06-.55a6.91,6.91,0,0,1,2,.45s.28-.33-.73-1S302.2,137.1,300.93,137.5Z" style="fill:#7e76ce;opacity:0.09000000357627869;isolation:isolate"/><path d="M282.89,114.15h-1c-.13,0-.45.35-.68.49s-.22.33-.06.69.42.38.86.5.29-.2.62-.32a.84.84,0,0,0,.48-.68,1,1,0,0,1,.36-.47c.08-.09-.25-.41-.25-.44A2.75,2.75,0,0,0,282.89,114.15Z" style="fill:#7e76ce;opacity:0.09000000357627869;isolation:isolate"/><path d="M293.57,115.42c-.36-.26-.56.66-.65,1.14s-.22.79,0,1.14.1.46.1.46l-.52-.39a3.35,3.35,0,0,0-.14.83c0,.39-.15.55.44.83s.79.12.86.55.08.6.48.68a1.54,1.54,0,0,1,1,.49c.16.26.08-.68.36-.62a1.65,1.65,0,0,1,.79.71.64.64,0,0,0,.49.33s-.45-.75-.25-.84.25-.16-.26-.48A2.63,2.63,0,0,0,295,120c-.4-.06-.4.27-.69-.5a2.13,2.13,0,0,1-.06-1.41c0-.17.21.26.45-.28a2.76,2.76,0,0,0,.26-1.47c0-.51.35-.71.06-.73A4.4,4.4,0,0,1,293.57,115.42Z" style="fill:#7e76ce;opacity:0.09000000357627869;isolation:isolate"/><path d="M298.26,125.29c.06.37-.36-.1-.51.11s-.24.17-.49.27a5.66,5.66,0,0,0-.86.67v-.44c0-.08-.18-.51-.37-.23a1.68,1.68,0,0,1-.78.69,1.16,1.16,0,0,0-.72.88c0,.37.25.36.25.36a2.59,2.59,0,0,0,.44-.55c.27-.43.32-.42.82-.48s.46-.06.61.21,0,.68.05,1,0,.65.5.82.27,0,.73,0,.46,0,.39-.26a4.56,4.56,0,0,1-.24-.71c0-.28.27-.4.37-.45s.15.27.3.62.19.33.25.07a4.6,4.6,0,0,0,.17-1.22,4.12,4.12,0,0,1-.09-.86,1.11,1.11,0,0,0-.36-.7c-.14-.1-.6-.5-.6-.5S298.2,124.92,298.26,125.29Z" style="fill:#7e76ce;opacity:0.09000000357627869;isolation:isolate"/><path d="M296,123s0-.23-.42-.65-.44-.54-1.09-.66-1.31.06-1,.76.36.8.91.89a1.16,1.16,0,0,0,.88-.22s.05.11-.48.44-.58,1-.17,1.2.4.61.64.43.4-.83.88-1.28.51-.52.57-1a4.12,4.12,0,0,0,0-.86Z" style="fill:#7e76ce;opacity:0.09000000357627869;isolation:isolate"/><path d="M297.11,121.7c-.06,0-.4,0-.05.31s.68.42.64.67,0,.3-.22.27a1.87,1.87,0,0,1-.34-.08c-.09,0-.11.17,0,.33s0,0,.22.24.12.36.17.67.19.16.19.16a6.61,6.61,0,0,1,0-.89c0-.16-.06-.52.19-.4s.18.55.33.14a1.91,1.91,0,0,0,0-1.11c-.07-.33-.33-.34-.64-.34A2,2,0,0,0,297.11,121.7Z" style="fill:#7e76ce;opacity:0.09000000357627869;isolation:isolate"/><path d="M292,123c-.15,0-.24.18-.33.68a1.87,1.87,0,0,1-.67,1.06,9.22,9.22,0,0,0-1.17,1.25c-.05.16-.05.06.56-.23s1.1-.67,1.17-1.07-.07-.15.47-.4.27-.34.29-.74S292.28,122.9,292,123Z" style="fill:#7e76ce;opacity:0.09000000357627869;isolation:isolate"/><path d="M324.65,138c-.07.51.15.66-.33,1a2.87,2.87,0,0,1-1.5.46c-.51.09-.14-.08-.76-.1s-.78,0-.5.34.22.62,1.14.58a8.68,8.68,0,0,0,2.27-.71c.59-.19.54-.67.59-.89S324.72,137.46,324.65,138Z" style="fill:#7e76ce;opacity:0.09000000357627869;isolation:isolate"/><path d="M327.21,139.11c.26.36.16.3.49.78a2,2,0,0,0,1.22.69c.38.13,0-.14-.29-.52a4.21,4.21,0,0,0-.73-1C327.48,138.69,326.77,138.48,327.21,139.11Z" style="fill:#7e76ce;opacity:0.09000000357627869;isolation:isolate"/><path d="M293.91,108.23c-1.26.81-1.83.75-1.33,1.77s.82,1.45.89,1.64.32-.13.67-.94a20.32,20.32,0,0,0,.52-2.18C294.8,108.2,294.34,108,293.91,108.23Z" style="fill:#7e76ce;opacity:0.09000000357627869;isolation:isolate"/><path d="M315.55,68.62c.14.53.28,1.36,0,1.45s-.53.68-.61,1.29a2.74,2.74,0,0,0,.1,1.85c.34.48.1.51.1.92a7.44,7.44,0,0,1-.08,2,2.39,2.39,0,0,0-.24,1.39,11.92,11.92,0,0,1,0,1.69c0,.92-.06,1.65,0,2s.24-.18.38-.31a.82.82,0,0,1,1,.11l.3.31s.47.2-.18-1.19-.77-1.1-.59-2.37.28-1.29.95-1.42,1,.8,1.1.89-.06-.32-.3-1a6.32,6.32,0,0,1-.53-1.85,2.86,2.86,0,0,0-.71-1.91c-.35-.26-.17-.68,0-1a2.9,2.9,0,0,0,.14-1.49A18.05,18.05,0,0,0,316,68.2c-.1-.33-.5.2-.5.2Z" style="fill:#7e76ce;opacity:0.09000000357627869;isolation:isolate"/><path d="M315,82.69a1.73,1.73,0,0,1-.2,1.22c-.27.46-.08.57-.23,1.22s-.93,0-.93.13a1.37,1.37,0,0,1-.32.75c-.19.16-.86.2-.67.84a7.69,7.69,0,0,0,.56,1.32,2.91,2.91,0,0,1,.51-.4l.43-.13s-.06-.18-.49-.38a.6.6,0,0,1-.34-.76c.06-.13.61,0,1,0s.65-.22,1.09.13a2.69,2.69,0,0,0,1.06.48,3.45,3.45,0,0,1,.27-.88c.2-.37.77-.2,1.35-.37s1-.25.81-.49-.18-.78-.3-1.18-.5,0-.79.13a1.1,1.1,0,0,1-1.07-.22,8.12,8.12,0,0,1-1.36-1.62S314.92,82.28,315,82.69Z" style="fill:#7e76ce;opacity:0.09000000357627869;isolation:isolate"/><path d="M313.19,88.71a1.28,1.28,0,0,0-.38,1.11c0,.54.5,0-.09,1.61s-.89,2-1.46,2.46a1.44,1.44,0,0,1-1.33.31c-.23-.11.06-.48.22-.59s-.51-.15-.79-.11,0,.36,0,.62-.58,1-.52,1.28.06.41-.29.52-.59-.26-.7-.31a7.35,7.35,0,0,0-1.33.19,1.31,1.31,0,0,0-1.17.84c-.29.51-1,.59-1.49.78s-.31.91-.86,1.16-.55.7-.59,1.08.34.11.4.08.06-.53.4-.47.38.07.2.45-.29.62-.45.91.06.49.32.82.52-.1,1.08-.69.61-.73.56-1.41-.26-.69-.68-.88-.5,0,0-.52.66,0,1-.25a7.66,7.66,0,0,1,1.78-.4c.73-.18,1.43-.41,1.45-.18s.26,1,.28,1.19.51-.24,1-.42,0-.26,0-.58a.53.53,0,0,1,.22-.49s.25.52,1,.15.84-.52,1-.47.34.26.66.06.39,0,.33.15.95-.32,1.17-.47.1,0,0-.59-.37-.62-.2-1.36a8,8,0,0,0,.16-1.29c0-.46.22-.53.34-.56s.12-.65.37-1S315,91,315,90.2s-.42-.62-.44-1.15a3.78,3.78,0,0,1,.1-1.06s-.84.31-.93.5l-.09.2A.53.53,0,0,0,313.19,88.71Z" style="fill:#7e76ce;opacity:0.09000000357627869;isolation:isolate"/><path d="M307.67,97a14.77,14.77,0,0,0-2,.41c-.52.16-.63.39-.55.91a9.58,9.58,0,0,0,.35,1.3c.07.27.36,0,.85-.25s.45-1,.92-1,.29.54.92-.22.15-.82.17-1.2S307.67,97,307.67,97Z" style="fill:#7e76ce;opacity:0.09000000357627869;isolation:isolate"/><path d="M362.93,56.2c-.93-.18-1.2-.39-1.29,0s-.19.45.4.66.89-.15,1.44.26a1.18,1.18,0,0,0,1.14.34.9.9,0,0,0,.59-.27A13.55,13.55,0,0,0,362.93,56.2Z" style="fill:#7e76ce;opacity:0.09000000357627869;isolation:isolate"/><path d="M352.25,41.49c-.34.09-.62-.24-.53.6s.28.94,1.36.79a12.63,12.63,0,0,1,1.74-.15,4.76,4.76,0,0,0,1.79-.32,2.71,2.71,0,0,0-.71-.8c-.5-.38-1.17.26-2.31.07A12.34,12.34,0,0,0,352.25,41.49Z" style="fill:#7e76ce;opacity:0.09000000357627869;isolation:isolate"/><path d="M318.93,29.08c0,.32,1.48,1.22,2,1.49s.95.15,2.07,0,1.22-.6,1.35-.88-.53-.17-1.29-.33-1.37.14-1.64,0,.4-.27-.26-.52-.83.08-1,0-.18-.34-.5-.37A.74.74,0,0,0,318.93,29.08Z" style="fill:#7e76ce;opacity:0.09000000357627869;isolation:isolate"/><path d="M313.14,31c-.51.2-.48.38.1.86s.38.38.13.72,0,0,.83.36,1.17,1,1.69,1.2a1.19,1.19,0,0,0,.87,0,4.68,4.68,0,0,0-.67-1.22c-.48-.66-1.54-.85-1.73-1.43S313.86,30.68,313.14,31Z" style="fill:#7e76ce;opacity:0.09000000357627869;isolation:isolate"/><path d="M318.41,28.27l-1.89-1.17a5.56,5.56,0,0,0-1.95-1c-.39-.05-.32.4-.47.76s-.25.29-.85,0a10.2,10.2,0,0,0-1.79-.87c-.6-.13-1,.36-1.67,1s-.29.88.55,1.9,1.21,1.07,1.89.67.49-.66,1-.46a7.28,7.28,0,0,0,2.23-.2c.06,0-.1.94.64.69a4.42,4.42,0,0,0,1.76-.74A5.47,5.47,0,0,0,318.41,28.27Z" style="fill:#7e76ce;opacity:0.09000000357627869;isolation:isolate"/><path d="M267.2,8.6c-.21.18-1.47.07-2.13,1.1s-1.1.31-1.43.94A11.44,11.44,0,0,0,263,12s.6.7,1.23.65a2.8,2.8,0,0,1,2.34,1.06c.61.85,1.07.85,2.55,1.08s.8.45,1.57.37,1.84.09,1.6-.29A1.67,1.67,0,0,1,272,13.5c.09-.75.78-.72,0-1.21a1.66,1.66,0,0,0-1.34-.18c0-.1.73-.37.45-.39s-1.64-.09-1.79-.86.37-.83.64-.89.2-.14-.59-.71-1.85-1.16-1.85-1.16C267,8.36,267.42,8.41,267.2,8.6Z" style="fill:#7e76ce;opacity:0.09000000357627869;isolation:isolate"/><path d="M274.62,14.16a2.51,2.51,0,0,0-1.38,1.18,9.27,9.27,0,0,1-1.42,1.58c-.42.33-.3.42.37.66s1.86-.43,2.19-.44.59.49,1.66.36,2.68-.33,1.89-.9a15.15,15.15,0,0,1-1.38-1,4,4,0,0,0-2-.75s1.79-.61,1.36-.64S274.62,14.16,274.62,14.16Z" style="fill:#7e76ce;opacity:0.09000000357627869;isolation:isolate"/><path d="M229,5.11c-1,.37-.67.55-1.34,1.08s-.22.68,1.23.33a9,9,0,0,0,2.44-.91C232.29,5.18,230.57,4.56,229,5.11Z" style="fill:#7e76ce;opacity:0.09000000357627869;isolation:isolate"/><path d="M231.32,7.7c-1,.43-.71.88-.45,1.25s1-.22,1.16.18.26.24,1.16-.37.58-.42.22-1.06S233,7,231.32,7.7Z" style="fill:#7e76ce;opacity:0.09000000357627869;isolation:isolate"/><path d="M225.93,7.43c-.62.3-.62.26,0,.54a3.43,3.43,0,0,0,2.77,0c.74-.48.68-.38-.25-.52A4.5,4.5,0,0,0,225.93,7.43Z" style="fill:#7e76ce;opacity:0.09000000357627869;isolation:isolate"/><path d="M216.79,8.55a14.33,14.33,0,0,1,2.62,0c.77.08.49.74-.93.89s.13.37,1.14.33.35-.87,1.2-1.15,1.37-.11,2.38-.47-.58-.7-1.75-.68a21.52,21.52,0,0,1-2.54,0A12.16,12.16,0,0,0,216.1,8C214,8.37,215.83,8.63,216.79,8.55Z" style="fill:#7e76ce;opacity:0.09000000357627869;isolation:isolate"/><path d="M224.33,8.81c-.84,0-2.88.47-1.16.63s1.58.28,2.29,0S225.22,8.81,224.33,8.81Z" style="fill:#7e76ce;opacity:0.09000000357627869;isolation:isolate"/><path d="M230.31,9.17A3.71,3.71,0,0,0,228.15,9c-.93,0-1.3.62-.69.86a2.43,2.43,0,0,0,1.53,0c.5-.08.47-.23.15-.36S231,9.4,230.31,9.17Z" style="fill:#7e76ce;opacity:0.09000000357627869;isolation:isolate"/><path d="M235.37,7.68c-.93.12-1,.28-1.07.58s.14.23,1.11.11a4.91,4.91,0,0,0,2.07-.61c.64-.34-.13-1.18-.13-1.33s-.9.45-1.15.67S236.46,7.54,235.37,7.68Z" style="fill:#7e76ce;opacity:0.09000000357627869;isolation:isolate"/><path d="M163,60.5c-.47,1.29-1.23,1.88-.33,1.52s1.82-1.46,1.77-.51-.93.81-.65,1.74.07.85,1.58,1.19.28.21.65,1.1.63,1.17.23,1.43-1.55-.81-1.62-.36.16.79.44,1.42-.19,1-1.07,1.4-.12.68.56.64,2.37-.36,2.09.23-1.09-.09-1.67.89S162.2,73,163.32,73s1-.35,4.28-.83,1,0,3.21-.71,1.49-.85.28-.65.79-1.19.51-2.47-1.07-.06-1.58-.87-.44-1,.54-.75.88-.2-1-1.4-.72-1-1.58-2a3,3,0,0,0-2.32-.89,3.05,3.05,0,0,0,1-1.11c.37-.73.44-.67.83-1.56s-.39-.81-1.39-.59-1.33.32-1.12-.08a4.38,4.38,0,0,1,.82-1c.46-.49.55-.75-.31-.55a6.43,6.43,0,0,0-1.72.51C162.65,58.51,163.41,59.22,163,60.5Z" style="fill:#7e76ce;opacity:0.09000000357627869;isolation:isolate"/><path d="M160.6,63.53c-1.52.6-1.09,1-.84,1.2s.72-.2-.69.62-1.45,1.69-.7,1.87.65-.43-.14,1-1.33,2.49.28,2.11,2-1.2,2.81-1.3.91-.71.91-1.64-.51-1,.09-1.72.65-1.58-.53-2S161.55,63.15,160.6,63.53Z" style="fill:#7e76ce;opacity:0.09000000357627869;isolation:isolate"/><path d="M179.7,84.26c-.08.21.1.78-.51,1.16s.29.74.49,1.1.45-1.25.4-2S180,83.6,179.7,84.26Z" style="fill:#7e76ce;opacity:0.09000000357627869;isolation:isolate"/><path d="M179.41,87.31a1.64,1.64,0,0,0-1.19,1.58c-.12.75.81.15.57.81s0,1,1,.39.45-1.2.61-2S180.73,86.69,179.41,87.31Z" style="fill:#7e76ce;opacity:0.09000000357627869;isolation:isolate"/><path d="M194.86,95.43c-.88-.09-1.27.46.24.63a8.45,8.45,0,0,0,2.75.06c.56-.14.09,0-.65-.53S196,95.54,194.86,95.43Z" style="fill:#7e76ce;opacity:0.09000000357627869;isolation:isolate"/><path d="M203.26,95.89c-1.21-.26-.88,1.22.36,1s.77.08,1.33-.83S204.53,96.17,203.26,95.89Z" style="fill:#7e76ce;opacity:0.09000000357627869;isolation:isolate"/><path d="M173.06,89.06c-1,.12-1.07.46-.3.66s.67,0,1.11-.35S173.49,89,173.06,89.06Z" style="fill:#7e76ce;opacity:0.09000000357627869;isolation:isolate"/><path d="M113.32,71.08a8.43,8.43,0,0,0-2.16,2.73,6.44,6.44,0,0,1-1.59,2.2c-.83.85-.42.66,2.16,1.16s2.36.88,3,.71.71.33.71.86.56.21.82-.61a4.74,4.74,0,0,0-.79-3.17c-.54-.85-.66-.85-1.48-.63s-.57-.19-.86-.85-.77-.14-.06-1.13S113.92,70.61,113.32,71.08Z" style="fill:#7e76ce;opacity:0.09000000357627869;isolation:isolate"/><path d="M34.61,69.32A4.33,4.33,0,0,0,36.12,72c.65.46.52.2.22-.77s-.06-1-.2-1.6S34.61,69,34.61,69.32Z" style="fill:#7e76ce;opacity:0.09000000357627869;isolation:isolate"/><path d="M38.92,73.8a7,7,0,0,0,1.6,1.52,5.47,5.47,0,0,0,2.09,1c1,.27,1.36-.09.75-.64s-.1-.5-1.2-.76-1.34-.16-1.9-.51S38.55,73.41,38.92,73.8Z" style="fill:#7e76ce;opacity:0.09000000357627869;isolation:isolate"/><path d="M14.88,64.66c-.71-.16-1-.19-1.48.2s-.62.71-.35,1.14.1.19.72-.23.33-.49,1.11-.68.62-.45.62-.45A.88.88,0,0,1,14.88,64.66Z" style="fill:#7e76ce;opacity:0.09000000357627869;isolation:isolate"/><path d="M14.63,63.71c-.48.29-.64.53-.1.42s.46-.42.8-.35.46-.07.46-.07A1.38,1.38,0,0,0,14.63,63.71Z" style="fill:#7e76ce;opacity:0.09000000357627869;isolation:isolate"/><path d="M1,61.52c-.65.32-1.26,0-.86.19a2.46,2.46,0,0,0,1.37.42c.43,0,.71,0,.56-.26a.67.67,0,0,1-.21-.48C1.82,61.1,1.63,61.21,1,61.52Z" style="fill:#7e76ce;opacity:0.09000000357627869;isolation:isolate"/><path d="M219.25,151.26c-.75,1.66-2.32.85-3.59,2.06s-1.06.84-.11,2.53-.79,1.51-1.23,3.49.52,1.62,1,3.31.75,1.17,1.7,1a5.52,5.52,0,0,0,1.61-.66,22.6,22.6,0,0,1,.79-3.63,28.59,28.59,0,0,0,1.18-5.18c.12-1.43.24-2.46.56-2s.35.44.35-.26-.38-2.66-1-3.12C219.49,147.92,220,149.61,219.25,151.26Z" style="fill:#7e76ce;opacity:0.09000000357627869;isolation:isolate"/><path d="M220.36,38.31c-1,.23-1.52.86-.77,1.11s.68.11,1.92-.33S221.38,38.07,220.36,38.31Z" style="fill:#7e76ce;opacity:0.09000000357627869;isolation:isolate"/><path d="M239.68,19.54c-.35-.55-.67.19-4.3,1.76s-3.59.22-7,2.91-2.64,2.35-2.84,4-1,.92-1.3,2.39-2.05,1.54-1.18,2.75a6.38,6.38,0,0,0,3.82,2.43c1.82.51,2.33,0,1.94-.22a6.13,6.13,0,0,1-1.5-4.81c.27-2.46,1.18-2.1,2-3a25,25,0,0,1,4.18-4.11A48.77,48.77,0,0,1,240,21.1s.11,0,.14-.05C241.53,19.51,240,20.09,239.68,19.54Z" style="fill:#7e76ce;opacity:0.09000000357627869;isolation:isolate"/><path d="M229.9,36c-.43.06-.63.07.16.84s1.48,1.36,1.22.33A1.36,1.36,0,0,0,229.9,36Z" style="fill:#7e76ce;opacity:0.09000000357627869;isolation:isolate"/><path d="M242.85,28.58c-.57-.27-.88-.56-1-.11s.65,1,1.42,1.17S243.41,28.83,242.85,28.58Z" style="fill:#7e76ce;opacity:0.09000000357627869;isolation:isolate"/><path d="M107.1,74.79a6.29,6.29,0,0,0-2.3-.79c-.57,0,.12.61,1,1.1S107.62,75,107.1,74.79Z" style="fill:#7e76ce;opacity:0.09000000357627869;isolation:isolate"/><path d="M105,78.48c0-.73-.48.84.17,1.19s1,.44,1.4,0,.08-.15-.49-.25S105,79.09,105,78.48Z" style="fill:#7e76ce;opacity:0.09000000357627869;isolation:isolate"/><g style="opacity:0.20000000298023224"><path d="M363.35,53.18a4.33,4.33,0,0,1-1.86-.17,2.94,2.94,0,0,1-.38,1.26.79.79,0,0,0-.09.86s-1.07-.47-1.69-.69-1.18,0-1.54-1-1.42-.77-2.24-.77-.56-1.06-.56-1.06h-.51c-.5,0-.41,1.24-1.06,1.62a10.87,10.87,0,0,1-2.69.64,5.19,5.19,0,0,1,1.56,1.7,8,8,0,0,0,.77,1.52s-.12.36-1.68,0-1.48.31-3.17,1a23.23,23.23,0,0,0-4.08,2.12c-.47.39-.5.17-2-.19a2,2,0,0,0-2.16.61c-.38.19-.24-.88-.24-.88a2.86,2.86,0,0,0-1.18.33c-6.74,3.42-2.09,3.24-2.31,3.93l-.71,2.68c-1,3-1.67,1.4-2.51,3.74-2.66,7.44-4.2-1.14-4.2-3.11,0-1.21-.27-2.78.5-3.14,6.62-3.08.62-.43,6.84-4.68,2-1.38.91-2.21,1.36-2.59a2.83,2.83,0,0,1,1.15-.5l-1.1-.11c-1.09-.11-1.12.14-2,1.08s-1.53,1.1-1.36.38.21-1.46-.44-1.07a5.88,5.88,0,0,1-2.13.58,6,6,0,0,0-3.61,2.2c-1.09,1.38-.47,1.21-.12,1.54s-1.74.25-2.75.17-.47-.28.12-.47-.89-.36-2.19-.63-.8.22-1.56.52-.74-.27-1.13-.36-2.1-.19-3.31-.33-1.13.08-1.45.5-2.57,2.39-3.55,3.52-2.19,1.38-3.28,2.43-1.27,1-.39,1.15,1,.08,1.16.91.56,1.1,1.51,1.1.68.25.85-.46-.23-1.55.57-.91a3.93,3.93,0,0,1,1.68,2c.24.91-.06,1.57-.47,3.08s-.56,3.69-1.13,4.79L311,81.16a19.06,19.06,0,0,1-4.32,4.55c-.68.27-1.12.3-1.45-.3s-.56-.5-1.33.19a3.75,3.75,0,0,0-1.42,2.2c-.3,1.1-1,1.1-1.63,1.93s-.86.63-.35,1.57a9.32,9.32,0,0,1,1.42,2.84,6.13,6.13,0,0,1-.74,2.81c-.33.57-1.87.85-1.84.57,0-.82,0-1.63,0-2.45s-.65-.8-.44-1,1.06-.66.44-1.24-1.06-.09-1.33-.77.12-1.24,0-1.49-.59-.52-1.5-.61-1.13.83-1.34,0,.09-.88-.32-1.21-.77-.11-1.83.8a5.29,5.29,0,0,1-2.16,1.1c-.89.39-.89.6-.68.91s.94,1.62,1.56,1.76,1.07-.28,2-.28,1.13.14.89.5-.89.72-2,1.87-.8.94-.41,1.41a8.83,8.83,0,0,1,1.36,2c.41.91,0,1.24-.06,1.76a2.39,2.39,0,0,0,.62,2.15c.77.83.24.55.15.86s-1.39,2.67-2,3.85-.6,1.3-2.52,2.65a8,8,0,0,1-3.81,1.68,12.37,12.37,0,0,0-2.46.71c-.53.22-.33.66-.38.94s-.56,0-.48-.39,0-.71-.23-.82a1.68,1.68,0,0,0-1.95.38c-.86.83-1.9.88-2.25,1.93s-.3.69.09,1.13a21,21,0,0,1,2.69,3.19,6.28,6.28,0,0,1,.56,2.73c0,1-2.13,3-3.08,3.61s-1.15,1.24-1,.25-.42-1.57-1.1-2.32a8.26,8.26,0,0,0-3.13-1.43c-.38-.08.15-.69-.12-.66s-.89-.14-.8.83-.62.66-.77,1.62-.32,2,.3,1.88.5.85,1,1.9.29.46,1.47,1.43.89.8,1.16,1.76a6.21,6.21,0,0,0,.77,2.4c.59.88.62,1.07-.36.57a5.61,5.61,0,0,1-2.16-1.7,15.51,15.51,0,0,1-.85-2.92c-.24-.77-1.84-1.68-2.37-2.23s-.21-1,.06-2.26a9.35,9.35,0,0,0-.21-3.25,23,23,0,0,0-1-3.66c-.29-.73-.17-.64-.63,0s-.81,1-1.26,1-1.09-.06-1-.35a5.62,5.62,0,0,0,.37-1.81,5.27,5.27,0,0,0-1.17-2.2,4.8,4.8,0,0,1-1.73-2.2c-.4-1.09-.5-.77-1.27-.21s-2.53.63-3.38.7-.14.48-.35.9-1.2,1-3.19,3-2.3,2.14-2.82,2.37-.84.15-.82,1a14.44,14.44,0,0,1,0,2.08,4.33,4.33,0,0,1-.54,1.56,8.31,8.31,0,0,0-.52,1.83,2.67,2.67,0,0,1-1.16,1.46c-.65.47-.65.38-1-.31s-1.83-3.33-3.08-5.81a7,7,0,0,1-1.06-3.63c-.12-.72-.14-5-.09-5.35,0-.18-.6.51-.78.86s-.17.77-.88.83-.85.08-1.52-.59-1-1-.86-1a3.57,3.57,0,0,0,1.33-.29c.44-.23.29-.46.29-.46a7.43,7.43,0,0,0-1,.08c-.52.08-.32-.13-1.07-.43s-.93-.33-1.06-.67l-.42-1.08c-.11-.25-.2-.27-.33-.59s-.49,0-1.31.07-.63,0-1.62.44a3.94,3.94,0,0,1-2.25.21,6.72,6.72,0,0,1-2.45-.71,6.8,6.8,0,0,0-1.48-.23c-.83-.11-.65-.54-.86-.89s-.55-.43-1.63-.34a3.54,3.54,0,0,1-1.74-.14c-.61-.17-.66-.39-1.17-.9s-.35-.11-.68-.38a2.84,2.84,0,0,1-.94-1.35c-.26-.71-.2-.87-.51-1.2s-.29-.25-1.24-.25-.52.07-.64.13a5.92,5.92,0,0,0-.68.82c-.27.33.21.79.6,1.24s.05.4.66,1.08.4.62.84,1.56.71,1.18.8,1.47.19-.11.29-.37a4.58,4.58,0,0,0,0-1.17,6.62,6.62,0,0,1,.36,1.06c.16.68,0,.69.16,1.12s0,.38.74.38a7.1,7.1,0,0,0,2-.17c.82-.19,1.18-.93,1.56-1.15s.39-1,.64-.91,0,.91.25,1.45.29.35.87.59.73.37,1.31.59.18.25.5.83.3.26.6.46.19,0,0,.74a2.25,2.25,0,0,1-.77,1.26c-.51.56-.51.39-.59.37s-.23-.42-.23-.42a4.32,4.32,0,0,0-.38,1.45c-.05.78.26.5-.68.88a7.09,7.09,0,0,0-1.86.84c-.37.31-.37.73-.57.93s-.5,0-1.13.24a2.07,2.07,0,0,0-1,.58c-.54.4-.06.36-.74.62a15.42,15.42,0,0,1-2.54.92c-.62.06-.49.23-.65.46s-.17.34-.95.46a10.21,10.21,0,0,0-2.26.47c-.49.24-1.19.77-1.71.67s-.37-.12-.54-.58a5,5,0,0,1-.33-1.54,7.56,7.56,0,0,0-.78-2.62c-.44-.73-.43-.78-.9-1.54a6.54,6.54,0,0,0-1.2-1.7c-.42-.29-.62-.31-.82-.53s-.08-1-.29-1.61a5,5,0,0,0-.65-1.63,7.72,7.72,0,0,1-1.2-1.53c-.42-.76-.45-.85-1.06-2s-.83-1.32-1.24-2.11-.14-.64-.28-1.11-.54.77-.84,1-.46.12-.71-.58-.46-1.31-.64-1a1.24,1.24,0,0,0-.08,1.3c.26.75.37.58.71,1.29s1.25,2.48,1.62,3.21a5.31,5.31,0,0,1,.58,1.49,3,3,0,0,0,1,1.71c.47.46.39.22.59,1a9.77,9.77,0,0,1,.16,2.09c0,.46.29.7.84,1.16s.28.29.53.78a11.83,11.83,0,0,1,.66,1.65,1.46,1.46,0,0,0,.76,1,7.19,7.19,0,0,0,1,.4c.43.15.28.26.58.64s.87.66,1.22,1.26.12.42.1,1-.21.31,0,.61a7.63,7.63,0,0,0,1.45,1c.75.5.15.15.82.13a6.28,6.28,0,0,0,1.53-.35c.71-.16,1.64-.42,2.53-.63s1.75-.35,2.21-.5.46.35.11,1.12-.51,1.41-.8,2-.41.68-.62,1.18-1.68,2.57-2,3.23a8.4,8.4,0,0,1-1.12,1.71,23.83,23.83,0,0,1-2.48,2c-.65.52-.49.52-1,1.14s-1.95,2.32-2.35,2.93a11.79,11.79,0,0,0-.91,1.42c-.3.6-1.14,1.44-1.19,1.87s-.52.49-.16.87.54.44.67.91-.4,1-.06,1.89.1.25.6,1a3.3,3.3,0,0,1,.53,2.16,11,11,0,0,1-.06,2.69,12.57,12.57,0,0,1-.6,1.69c-.22.59-1.47,1-2.2,1.32s-.7.19-1,.59a13.82,13.82,0,0,0-1.63,1.88c-.33.62-.57.56-.44,1a15.49,15.49,0,0,0,.74,1.65c.34.74.1.67,0,1.31s-.07.53-.16,1.3-1,.79-2,1.2-.66.2-.78.76a22.49,22.49,0,0,0-.09,2.32c0,.66-.35.39-.92,1.21s-.79,1.21-1.39,2.19a3.69,3.69,0,0,1-1.31,1.46c-.76.61-1.36.77-1.69,1.47s-.72.24-2.35.77a4.49,4.49,0,0,1-2,.44c-1.55.17-2.1.29-2.92.44s-.71,0-1.21-.6-.58-.5-.81-1-.06-.57-.13-1.4a2.33,2.33,0,0,0-.44-1.37,6.79,6.79,0,0,1-.62-1.41,7.25,7.25,0,0,0-.86-1.6c-.38-.55-.48-.37-.83-.73a1.82,1.82,0,0,1-.43-1.18c-.08-.5-.2-1.69-.37-2.95s0-.59-.22-1.12-.43-1.18-.76-1.88a11,11,0,0,0-.73-1.4,7.24,7.24,0,0,1-.79-1.51c-.33-.77-.38-.43-.4-.72s.17-.83.19-1.34a17.52,17.52,0,0,1,.32-1.9c.13-.79-.18-.78.15-1.32a8.59,8.59,0,0,0,.9-1.66,2.87,2.87,0,0,0,.19-1.42,2.61,2.61,0,0,0-.32-1.37c-.23-.65-.32-1.41-.61-2.46a6.24,6.24,0,0,1-.31-1.41,10.71,10.71,0,0,0-.44-1.86c-.19-.55-.29-.34-.73-.69s-.14-.21-.52-.6-.3-.52-.67-1a5,5,0,0,1-.71-.93c-.29-.49-.14-.19-.1-1s.28-2.38.43-3.28.18-.85-.17-1.23-.59-.92-.86-1-.91.09-1.84.07-.9-.22-1.3-.69-.94-1.12-1.13-1.3-.51-.16-2.11,0a8.71,8.71,0,0,0-1.69.31c-1.06.17-1.48.72-2.3,1s-1.06.21-2.49-.07a4,4,0,0,0-2.89.64,1.41,1.41,0,0,1-1.62-.2,10.83,10.83,0,0,0-1.67-1.08c-.81-.4-.63-.62-1.43-1s-.55-.41-1.22-1-.72-1.28-1.18-1.94a22.93,22.93,0,0,0-1.48-2.29,23.25,23.25,0,0,1-1.54-2.52c-.3-.42-.54-.46-.53-.66s.6-1.39.85-2,.31-.54.42-.92a5.21,5.21,0,0,0-.38-2.1c-.24-.61-.51-1.89-.69-2.48s.09-.61.32-.95a21.7,21.7,0,0,0,1.33-2.09c.57-1,.88-1.56,1.18-2a14.07,14.07,0,0,1,1.42-2.39,13.47,13.47,0,0,1,2.06-1.46c.48-.24.87-.38,1-.6s.29-2,.43-2.8,0-1.19.5-1.48l1.9-1.1c.46-.26.54-.64.77-1.2s.34-1.27.69-1.5.26.1.72.41a2,2,0,0,0,.76.39,4.89,4.89,0,0,1,1-.18,1.32,1.32,0,0,1,.92.23c.33.18.15.18,1.08-.39A14.52,14.52,0,0,1,171.71,94a12.32,12.32,0,0,1,2.6-.76c.56-.07.27,0,.91.26s.66.35.78.17.55-.7.81-.68.58.13,1.26.25a1.77,1.77,0,0,0,1.24-.09c.27-.15.63-.44.7-.44s.65.2,1.12.37.48.2.39.32a2.66,2.66,0,0,0-.47.77c-.22.51-.12.23.1.78s.37.51.28.91-.55.76-.87,1.14-.25.45.55.9a10.26,10.26,0,0,0,1.51.78,9.75,9.75,0,0,0,2,.57c1,.31.92.35,1.28.77s.39.83,1,1a12,12,0,0,1,1.66.45,3,3,0,0,0,1.16.65c.49.09.49.16.73-.2s.43-.68.34-.86-.35-.47-.3-.65a9.34,9.34,0,0,1,.61-1.08c.13-.21.45-.27,1.23-.3s1.32-.15,1.45.31.1.25.7.5.66.24,1.16.44.25.46.51.45a2.92,2.92,0,0,1,1.14.08,8.37,8.37,0,0,0,2.26.59,2.33,2.33,0,0,0,1.41-.31c.13-.06.78-.86,1.17-.31s.89.56,1.85.51,1-.21,1.2-.45a7.08,7.08,0,0,0,1-1.83c.19-.64.7-2,.84-2.68a3.84,3.84,0,0,0-.06-1.51,1.93,1.93,0,0,1,.19-1c.15-.42-.47-.17-.71-.09s-.32-.12-.54-.19-.47-.12-.64.31-.09.63-1,.58-.74-.1-1-.42a2.44,2.44,0,0,0-1.2-.52c-.4-.12-.44-.1-.47.15s0,.43-.34.54a2.62,2.62,0,0,1-1.53-.29,3.54,3.54,0,0,1-1.33-.89c-.55-.54-.47-.54-.7-1.37a3.66,3.66,0,0,1-.12-1.8c.09-.25.25-.32-.17-.19s-.71.2-.43-.44.55-.66.85-.74a8.19,8.19,0,0,1,1.31-.13,3.17,3.17,0,0,0,1.19-.4c.2-.09.61-.22.4-.28s-.83-.12-.72-.29.18-.17.51-.2l1.3-.09c.44,0,.71.06.86-.21a2.22,2.22,0,0,1,.68-.87c.35-.21.72-.1,1.63-.14s.77.19,1.06.4.5.11.88.18.15.3.44.42.84.24,1.5.45.23.12,1,.12a5.67,5.67,0,0,0,1.42-.1,3,3,0,0,0,1.36-.67c.45-.32.14-1,0-1.56s-.88-.89-1.2-1.14-1-1-1.4-1.36a6.54,6.54,0,0,0-1.23-.64c-.41-.23-1.15-.61-1.22-.91s.16-.31.77-.46.41-.27.53-.59.17-.32.67-.5-.58-.57-.73-.78.34-.15.84-.27.54-.35.61-.57,0-.31-.54-.3a11.67,11.67,0,0,0-2.34.53c-1,.26-.54.27-1.14.74s-.64.26-.56.52.12.51.73.83.35.33.52.38.58.1.39.16-.35.35-.63.35-.39.28-.86.55a2.62,2.62,0,0,1-1,.36c-.34,0-.59-.06-.54-.65s-.18-.19-.54-.32a1.26,1.26,0,0,1-.51-.3,3.54,3.54,0,0,0,.73-.36,1.42,1.42,0,0,0,.71-.81c.18-.45-.39-.21-.81-.26s-.29-.09-.7-.15a.73.73,0,0,1-.56-.37,1.19,1.19,0,0,0,.53,0c.35,0,.27-.13.4-.22s.23-.17.13-.17h-.81a4.22,4.22,0,0,0-.87,0c-.41.07-.25.22-.54.42a1,1,0,0,0-.46.54c-.16.28-.21.24-.32.42a2.41,2.41,0,0,0-.1,1,1,1,0,0,1-.27.67c-.18.25-.18.14-.5.3s-.11.27-.15.58-.14.43-.17.83-.19.43-.44.71-.38.28-.4.58a3.35,3.35,0,0,0,0,1c.07.57.23.42.67,1s.68.36.52.65-.13.19-.67.12-.63,0-1,.4a5.64,5.64,0,0,1-.68.72c-.2.14-.14-.27-.22-.47s-1-.25-1.61-.44c-.31-.11-.62-.21-.94-.29a1.7,1.7,0,0,0-1,.32c-.65.36-.51.57-.46,1s.56.57.41,1.67.55.59.84,1.27,0,.62-.14.7a2.91,2.91,0,0,0-.49,1.21c-.13.55,0,.62-.15.59s-.35.1-.66-.36-.57,0-.61-.28-.43-.71-.28-1.31.38-.66-.15-1-.4-.36-.65-1a3.74,3.74,0,0,0-.8-1.36c-.49-.59-.44-.43-.31-1a2.46,2.46,0,0,0-.06-1.77,9.81,9.81,0,0,0-2.53-2.1c-1-.53-1.21-.12-1.65-1a5.46,5.46,0,0,0-1.39-2.27c-.74-.53-.37-.56-1.08-.3s-.73.37-.67.58a1.89,1.89,0,0,1,.12,1c-.1.56-.25.38.49.82s.43.35.8,1.16A4,4,0,0,0,185,85a1.7,1.7,0,0,0,1.14.79c.74.16.62,0,.81.14s-.52.24-.38.33a7,7,0,0,0,.92.7,4.73,4.73,0,0,1,1.42,1.09c.16.3.7,1.44-.09.6s-.82-.45-1,.13.21,1,.18,1.44-.4.26-.65.61a4.53,4.53,0,0,1-.68,1c-.3.23-.21-.24-.37-.24s-.22.2-.43.6,0,.57.09,1.1.24.58-.34.56-.45-.57-1-.93-.84-.23-1.28-.51.19-.34,1.3-.48,1.24-.25,1.58-.51.22-.33.59-.85,0-.73-.25-1.37a2.33,2.33,0,0,0-.89-1,9.85,9.85,0,0,1-.85-.86,2.17,2.17,0,0,0-1.23-.55c-.57-.13-.46-.64-.77-.79a11.32,11.32,0,0,1-1.33-1.26c-.71-.66-.45-1.16-.77-1.73s-.65-1-1.36-1-1.24.49-1.95,1.18-.57,1-1.39.5-1.13-.47-1.72,0a2.17,2.17,0,0,0-.71,2c0,1-.71.58-1.27.85s-1.07,1-1.92,2.59.06.85-.12,1.41.06,1-.74,1.7-.45-.08-.92.5a2.3,2.3,0,0,1-2.25.91c-1.12-.14-.8.3-1.51.47s-1.09.41-.91-.39,0-.69-1.33-.63-1.84.41-1.72.22a4.87,4.87,0,0,0,.33-1.3c.15-.77.35-1,.15-1s-.66.12-.33-1.26a5,5,0,0,0,.3-2.43c-.15-.8.05-1.87-.12-2.34s.35-.93.12-1.18-.51-.58-.33-.58a13,13,0,0,1,1.86.19,16,16,0,0,0,2.49-.08c.56,0,1.74.3,2.93.5s1.15-.17,1-1.91.09-2.53-.27-2.89-.73-.33-1.12-.8-.09-1.15-.91-1.4-1.75-.06-1.31-.22.62-.22.15-.58-.59-.74-.24-.8a9.9,9.9,0,0,1,1.36,0s.09.49.63.27,1.21-.44,1.06-.8-.41-.79-.33-.79a1.82,1.82,0,0,0,1.42.49c1.13,0,1-.16,1-.63s.74-.44,1.3-.83-.2-.82-.08-1.18.76-.58,1.92-.66.94-.28.83-.42a3.74,3.74,0,0,1,.11-1.46c.11-.75-.08-1,.51-1.35s.41-.22,1.62-.33.48-.38.68-.44,1.66-.41,1.92-.52.24-.08,0-.61a7.09,7.09,0,0,1-.82-3.25c-.27-2.42-.21-2.42,1.27-2.86s1.15-.3,1,1-.77,1.35-.91,2.34a3.4,3.4,0,0,0,.59,2.64c.62,1,.56.52,1.89.52s1,.33,1.92.64.59-.55,1.45-.86.68.2,2.69-.11c.77-.11,1-.14,1.09-.14s-.28,0,0-.13c.47-.28.59-.77,1.27-.86s1.15.2,1.12-.85-.41-.88-.29-1.68.15-.44.21-1.07-.09-.75.77-1,.26.77,1.3,1,.88.39,1.06-.41.74-1.85.24-1.79-.62,0-1.13-.77-.79-.91-.47-.91a17.69,17.69,0,0,1,3-.25c1.56.06,2,.19,2.1,0s-.27-.33.26-.66,2.28.16,2-.14a4.51,4.51,0,0,0-2.83-.55,39.43,39.43,0,0,1-3.94.44,2.75,2.75,0,0,1-1.27-.49c-.18-.2-.74-.33-.74-1.24s.33-1.27-.21-2.15,1-1.63,2-2.56.77-1.71,1.38-1.77.86-.38.57-.69A6.66,6.66,0,0,0,194.22,46c-.53-.11-1.33-.72-2.15.71s.05,1.57.2,2.32-1.15,1.29-2.13,2-1.33.52-1.62,2.28-.6,1.82.5,2.43,1.3.91.8,1.43-1.57.5-2.22,1.74-.38,1.84-.65,2.39-1.09.8-1.33,1.35-.24,1.6-1.24,1.43-.45-1.51-.89-2.2-.8-1.27-1.33-2.12S182,58,181.54,57.6a2.35,2.35,0,0,1-.62-1.32l-.18.41a4.66,4.66,0,0,1-1.1,1.9,3,3,0,0,1-3.25,1c-.74-.3-.62-1-.62-1.93a26.29,26.29,0,0,1,0-3.55c.15-1.43.56-1.32,2.13-2.26s1.6-.88,2-1.49a13.21,13.21,0,0,1,2.16-2,14.64,14.64,0,0,0,2.37-4.13c.59-1.49,1.68-2.4,2.75-4a11.89,11.89,0,0,1,5.38-4c2.42-1,2-1.13,2.57-1.93s.8-.33,1.75-.53.8,0-.15.94-1.36,1.93-.56,1.19,1.42-1.63,2.66-1.57.74,0,2,.55,1.42.6.74,1a3.4,3.4,0,0,1-1.83.33,1.91,1.91,0,0,0,1.5,1c1.13.14,1.75-.88,2.49-.5s1,.66-.06.58-1.3.55-.06,1a10.36,10.36,0,0,0,3,.72c1.62.22,2.34,1.4,3.58,1.93s2.69.08,2.28,1.21.32,2.23-1.84,2.76-2.1-.17-3.9-.72a29.63,29.63,0,0,1-3.08-1.1,11.47,11.47,0,0,0,1.3,1.4c.83.77.92,1.49.83,2.89s-.47,1.79.95,2.48,1.21.5,1.65.39,1.19-.25,1-.47a2.25,2.25,0,0,0-.8-.85.54.54,0,0,1-.33-.68.55.55,0,0,1,.33-.32c.47-.24.92.22,1.95.17s0-.39.5-.91.54-1.4,1.75-1.87,2.51.22,2.84-.31a1.4,1.4,0,0,0,0-1.92c-.68-.8-1.21-1.08-.8-1.46s1.24-1.41,1.63-.83,1.36,1.21.12,1.1-.39,1.85.74,1.74,1-.47,1.95-.91,2.72-1.9,4-2.34,1.54-.33,2-.11a1.86,1.86,0,0,0,1.89.36c1.39-.28,1.81-.61,3.11-.83s-.09.47.5.66.65.36,1.1.06,1.86-.8,1.21-1.3-1.13-.83-1.13-.83a1.79,1.79,0,0,1,1.72-1c1.24.08,3.13,1.24,4.35,2.07a17.74,17.74,0,0,1,2.69,2.58,3.27,3.27,0,0,0,.09-2.42c-.45-1.51-1.57-1.16-1.57-2.59s-1-1-.68-2.06,1.36-1.41,1.63-2.7.5-2.37,1.42-2.37,2.89.27,2.89.27a8.43,8.43,0,0,1-.74,3c-.73,1.76.39,2,.21,4.11s-.21,2.42.3,2.91,1.45,1.11,1.09,2a2.68,2.68,0,0,1-1.86,2c-1.33.52-3,.22-2.4.64a6,6,0,0,0,2.31.9c.89.14.44-.05,1.15-.63s2.31-1.74,2.25-2.29-.92-1.4-.32-1.82.82-1,1.74-.52S250,43,250,42.88a5.47,5.47,0,0,0-1.28-3c-1.09-1.1-2.89-.06-2.89-1s.5-2.29.38-3.33-.53-2.1.15-3a3.28,3.28,0,0,0,.71-1.63,3.94,3.94,0,0,1,.06,1.93c-.24,1.07.12,1.71.62,1.71s2.75,0,1.54-.33-1.57-.69-.36-1.35,1.15-.22,2.93.19a16.37,16.37,0,0,0,2.78.69c.59,0,.5-.09.29-.61a2.32,2.32,0,0,0-1-1.24c-.56-.36-.95.08-1.12-.47s-.51-1.92-.66-2.45.45-.11,1.39-.11,3.52-.14,5.51-.19,0-2.12-.12-3.58,3.66-1.52,5.53-1.79a57.62,57.62,0,0,0,7.51-1c3.49-.83,1.24-.69,1.74-1.68a2.34,2.34,0,0,1,2.4-1.16c1,0,2,.2,1.6.33s-1.54.72.26,1.11,1.34.35.39.68-.15.94,1.68.94.74-.16.45-.77.26-.39,1.77-.14A4.69,4.69,0,0,1,285,22.94c.83.77,1,.58,1.27,1.65s0,.91-1.3,1.9-2,1-3.87,2.15-1.39,1.76-2.4,2.53-.74.55,1.39,0,3.28-.91,4.38-.79,1.62.52,2.45.52a16.7,16.7,0,0,0,2.55.14c2.6,0,2.21,0,1.27.74s.18,1,1.33,1a26,26,0,0,0,3.64-.11c1.06-.16.14-1,1.42-1s1.68-.16,3-.16.95.55,1.42,1.05,1.12.82.68,1.81-.68,1-.41,2.37.94,1.54,1.77,1.79.83-1.21,1.63-1.71,1,1,1.89.78a5.46,5.46,0,0,1,2.75.13,4.47,4.47,0,0,0,2.61.14c1.12-.25.76-.69.38-1.38s-.41-.63.3-1.35,1.18-.35,3.49.25a21.22,21.22,0,0,1,2.86,1,12,12,0,0,1,2.87,1.18c2,.91,1.6,2,2.52,2.56s1,0,2.81-.16,1.8.22,3.81.74S333,41.8,333,42.38s-.56,1,.68,1.3a5.18,5.18,0,0,0,2.81.25c1.06-.28.12.27,2.48.3s1.57-.28,2.28.22.89,1.49,2,1.38,1.07-.09.59-1.11-.77-1.18-.08-1.15,2.07.33,4.64.74,2.66.88,4.76,2.2c1.45.8,2.86,1.68,4.23,2.62a3.28,3.28,0,0,1,.72.62,3.36,3.36,0,0,1,.79.32c1.65.77,1.36.52,2.78,1.21a16.6,16.6,0,0,1,2.63,1.65S364.42,53.07,363.35,53.18Z" style="fill:#7e76ce;opacity:0.4399999976158142;isolation:isolate"/></g><path d="M115,38.74c-.28.47.46,1.07,1,.88s.71,0,1-.22.34-.6,0-1-.21-.55-.27-.59C116.05,37.45,115.3,38.26,115,38.74Z" style="fill:#7e76ce;opacity:0.09000000357627869;isolation:isolate"/><path d="M261.23,8.37c-.8,0-1.69.06-1,.3s.45,1.49,1.87.8,1.12-.74,2.1-1.16.41-.21-.77-.52C262.74,7.6,262,8.34,261.23,8.37Z" style="fill:#7e76ce;opacity:0.09000000357627869;isolation:isolate"/></g></g></g></g></svg>